<?xml version="1.0" encoding="UTF-8"?>
<svg width="605px" height="601px" xmlns="http://www.w3.org/2000/svg" xmlns:xlink="http://www.w3.org/1999/xlink" viewBox="0 0 1080 1080">
  <defs>
    <style>
      .cls-1 {
        opacity: .1;
      }

      .cls-1, .cls-2, .cls-3 {
        fill: #efede6;
      }

      .cls-4 {
        fill: url(#linear-gradient);
      }

      .cls-5 {
        clip-path: url(#clippath);
      }

      .cls-6, .cls-7, .cls-8, .cls-9, .cls-10, .cls-11, .cls-12, .cls-13 {
        stroke-miterlimit: 10;
      }

      .cls-6, .cls-10, .cls-12, .cls-13 {
        fill: none;
      }

      .cls-6, .cls-11 {
        stroke: #fce5e2;
        stroke-width: .83px;
      }

      .cls-14 {
        fill: url(#Green_Shade);
      }

      .cls-15 {
        fill: url(#Red_Front-3);
      }

      .cls-15, .cls-16, .cls-17, .cls-18, .cls-19, .cls-20, .cls-21, .cls-22, .cls-23, .cls-24, .cls-25, .cls-26, .cls-27, .cls-28, .cls-29, .cls-30, .cls-31, .cls-32, .cls-33, .cls-34, .cls-35, .cls-36, .cls-37, .cls-38, .cls-39, .cls-40, .cls-41, .cls-42, .cls-43, .cls-44, .cls-45 {
        fill-rule: evenodd;
      }

      .cls-16 {
        fill: url(#Red_Front-2);
      }

      .cls-17 {
        fill: url(#Red_Front-4);
      }

      .cls-46, .cls-31 {
        fill: #f3efce;
      }

      .cls-47, .cls-9, .cls-42 {
        fill: #fff;
      }

      .cls-48, .cls-8, .cls-11 {
        fill: #a0efe6;
      }

      .cls-49 {
        fill: #e44426;
      }

      .cls-50, .cls-30, .cls-51, .cls-52 {
        fill: #121928;
      }

      .cls-53, .cls-7 {
        fill: #1b2d28;
      }

      .cls-54 {
        fill: #17a599;
      }

      .cls-55, .cls-32 {
        fill: #1a1a1a;
      }

      .cls-56 {
        fill: url(#Green_Shade-2);
      }

      .cls-57 {
        fill: url(#Green_Shade-5);
      }

      .cls-58 {
        fill: url(#Green_Shade-3);
      }

      .cls-59 {
        fill: url(#Green_Shade-4);
      }

      .cls-18 {
        fill: url(#Green_Shade-6);
      }

      .cls-19 {
        fill: url(#Green_Shade-7);
      }

      .cls-20 {
        fill: url(#Green_Shade-8);
      }

      .cls-21 {
        fill: url(#Red_Shade-4);
      }

      .cls-22 {
        fill: url(#Red_Shade-2);
      }

      .cls-23 {
        fill: url(#Red_Shade-5);
      }

      .cls-24 {
        fill: url(#Red_Shade-3);
      }

      .cls-25, .cls-30, .cls-60 {
        mix-blend-mode: multiply;
      }

      .cls-25, .cls-37 {
        fill: #207079;
      }

      .cls-61 {
        clip-path: url(#clippath-1);
      }

      .cls-62 {
        clip-path: url(#clippath-4);
      }

      .cls-63 {
        clip-path: url(#clippath-3);
      }

      .cls-64 {
        clip-path: url(#clippath-2);
      }

      .cls-65 {
        clip-path: url(#clippath-7);
      }

      .cls-66 {
        clip-path: url(#clippath-8);
      }

      .cls-67 {
        clip-path: url(#clippath-6);
      }

      .cls-68 {
        clip-path: url(#clippath-5);
      }

      .cls-69 {
        clip-path: url(#clippath-9);
      }

      .cls-7, .cls-8, .cls-9, .cls-12, .cls-13 {
        stroke-width: .89px;
      }

      .cls-7, .cls-9, .cls-12 {
        stroke: #1b2d28;
      }

      .cls-8, .cls-13 {
        stroke: #a0efe6;
      }

      .cls-70 {
        clip-path: url(#clippath-12);
      }

      .cls-71 {
        clip-path: url(#clippath-10);
      }

      .cls-72 {
        clip-path: url(#clippath-11);
      }

      .cls-3, .cls-73 {
        opacity: .2;
      }

      .cls-10 {
        stroke: #fff;
        stroke-width: 1.01px;
      }

      .cls-26 {
        fill: url(#Red_Top-2);
      }

      .cls-27 {
        fill: url(#Red_Top-5);
      }

      .cls-28 {
        fill: url(#Red_Top-4);
      }

      .cls-29 {
        fill: url(#Red_Top-3);
      }

      .cls-74 {
        fill: url(#linear-gradient-8);
      }

      .cls-75 {
        fill: url(#linear-gradient-9);
      }

      .cls-76 {
        fill: url(#linear-gradient-4);
      }

      .cls-77 {
        fill: url(#linear-gradient-2);
      }

      .cls-78 {
        fill: url(#linear-gradient-6);
      }

      .cls-79 {
        fill: url(#linear-gradient-7);
      }

      .cls-80 {
        fill: url(#linear-gradient-5);
      }

      .cls-81, .cls-52 {
        opacity: .3;
      }

      .cls-82, .cls-83, .cls-84, .cls-85, .cls-86, .cls-87, .cls-88, .cls-51, .cls-89 {
        opacity: .5;
      }

      .cls-83 {
        fill: url(#linear-gradient-19);
      }

      .cls-84 {
        fill: url(#linear-gradient-18);
      }

      .cls-85 {
        fill: url(#linear-gradient-24);
      }

      .cls-30 {
        opacity: .58;
      }

      .cls-33 {
        fill: #071a1a;
      }

      .cls-34 {
        fill: #0b2928;
      }

      .cls-35 {
        fill: #0a2423;
      }

      .cls-36 {
        fill: #09201f;
      }

      .cls-38 {
        fill: #17504e;
      }

      .cls-39 {
        fill: #e24527;
      }

      .cls-40 {
        fill: #af4021;
      }

      .cls-41 {
        fill: #a6321d;
      }

      .cls-43 {
        fill: #061615;
      }

      .cls-90 {
        fill: url(#Red_Shade);
      }

      .cls-91 {
        fill: url(#Red_Front);
      }

      .cls-92 {
        fill: url(#linear-gradient-14);
      }

      .cls-93 {
        fill: url(#linear-gradient-22);
      }

      .cls-94 {
        fill: url(#linear-gradient-20);
      }

      .cls-95 {
        fill: url(#linear-gradient-21);
      }

      .cls-96 {
        fill: url(#linear-gradient-23);
      }

      .cls-97 {
        fill: url(#linear-gradient-15);
      }

      .cls-98 {
        fill: url(#linear-gradient-16);
      }

      .cls-99 {
        fill: url(#linear-gradient-17);
      }

      .cls-100 {
        fill: url(#linear-gradient-13);
      }

      .cls-101 {
        fill: url(#linear-gradient-12);
      }

      .cls-102 {
        fill: url(#linear-gradient-10);
      }

      .cls-103 {
        fill: url(#linear-gradient-11);
      }

      .cls-104 {
        fill: url(#linear-gradient-27);
      }

      .cls-105 {
        fill: url(#linear-gradient-26);
      }

      .cls-106 {
        fill: url(#linear-gradient-25);
      }

      .cls-107 {
        fill: url(#linear-gradient-28);
      }

      .cls-108 {
        isolation: isolate;
      }

      .cls-60 {
        opacity: .4;
      }

      .cls-45 {
        fill: url(#Red_Top);
      }

      .cls-86 {
        fill: url(#linear-gradient-3);
      }

      .cls-87 {
        fill: #f9c2bb;
      }

      .cls-88 {
        fill: #5eded7;
      }

      .cls-89, .cls-109 {
        fill: #1c827d;
      }

      .cls-109 {
        opacity: .7;
      }
    </style>
    <linearGradient id="linear-gradient" x1="54.22" y1="808.64" x2="109.99" y2="808.64" gradientUnits="userSpaceOnUse">
      <stop offset="0" stop-color="#4dc7aa"/>
      <stop offset="1" stop-color="#a0efe6"/>
    </linearGradient>
    <linearGradient id="Green_Shade" data-name="Green Shade" x1="56.12" y1="820.45" x2="114.87" y2="820.45" gradientUnits="userSpaceOnUse">
      <stop offset="0" stop-color="#053c20"/>
      <stop offset="1" stop-color="#137a6e"/>
    </linearGradient>
    <linearGradient id="linear-gradient-2" x1="676.42" y1="916.24" x2="732.19" y2="916.24" xlink:href="#linear-gradient"/>
    <linearGradient id="Green_Shade-2" data-name="Green Shade" x1="678.32" y1="928.05" x2="737.08" y2="928.05" xlink:href="#Green_Shade"/>
    <linearGradient id="linear-gradient-3" x1="801.57" y1="353.27" x2="497.14" y2="523.16" gradientUnits="userSpaceOnUse">
      <stop offset="0" stop-color="#000" stop-opacity="0"/>
      <stop offset="1" stop-color="#000"/>
    </linearGradient>
    <linearGradient id="linear-gradient-4" x1="413.71" y1="324.88" x2="605.63" y2="324.88" gradientUnits="userSpaceOnUse">
      <stop offset="0" stop-color="#a51704"/>
      <stop offset=".73" stop-color="#e24325"/>
      <stop offset="1" stop-color="#e44426"/>
    </linearGradient>
    <clipPath id="clippath">
      <path class="cls-76" d="M414.09,484.89l1.19-391.81,190.34,53.07s-.2,388.11-1,390.95c-5.9,20.83-53.29,25.84-105.85,11.19-51.84-14.45-89.32-42.63-84.68-63.39Z"/>
    </clipPath>
    <clipPath id="clippath-1">
      <ellipse class="cls-2" cx="510.45" cy="119.61" rx="39.2" ry="98.8" transform="translate(258.5 579.38) rotate(-74.46)"/>
    </clipPath>
    <linearGradient id="linear-gradient-5" x1="1443.97" y1="212.57" x2="1668.49" y2="212.57" gradientTransform="translate(-1312)" gradientUnits="userSpaceOnUse">
      <stop offset="0" stop-color="#dcefe5"/>
      <stop offset=".03" stop-color="#fff"/>
      <stop offset="1" stop-color="#f9c2bb"/>
    </linearGradient>
    <linearGradient id="linear-gradient-6" x1="3772.11" y1="477.62" x2="3836.25" y2="477.62" gradientTransform="translate(4139.29) rotate(-180) scale(1 -1)" xlink:href="#linear-gradient-4"/>
    <linearGradient id="linear-gradient-7" x1="3772.11" y1="477.62" x2="3836.25" y2="477.62" gradientTransform="translate(4139.29) rotate(-180) scale(1 -1)" xlink:href="#linear-gradient-4"/>
    <clipPath id="clippath-2">
      <polygon class="cls-79" points="367.18 161.83 367.18 766.12 303.03 793.42 303.03 188.99 367.18 161.83"/>
    </clipPath>
    <linearGradient id="linear-gradient-8" x1="189.24" y1="553.24" x2="362.21" y2="553.24" xlink:href="#linear-gradient-4"/>
    <linearGradient id="linear-gradient-9" x1="189.24" y1="553.24" x2="362.21" y2="553.24" xlink:href="#linear-gradient-4"/>
    <clipPath id="clippath-3">
      <path class="cls-75" d="M189.59,620.37l1.07-353.12,171.55,47.83s-.18,503.95-.9,506.5c-5.31,18.78-48.03,23.29-95.4,10.08-46.72-13.03-80.5-192.58-76.32-211.29Z"/>
    </clipPath>
    <clipPath id="clippath-4">
      <ellipse class="cls-2" cx="276.44" cy="291.16" rx="35.33" ry="89.05" transform="translate(-78.12 479.51) rotate(-74.46)"/>
    </clipPath>
    <linearGradient id="linear-gradient-10" x1="1555.03" y1="195.29" x2="1555.03" y2="841.83" gradientTransform="translate(-1312)" xlink:href="#linear-gradient-4"/>
    <linearGradient id="linear-gradient-11" x1="1555.03" y1="195.29" x2="1555.03" y2="841.83" gradientTransform="translate(-1312)" xlink:href="#linear-gradient-4"/>
    <clipPath id="clippath-5">
      <polygon class="cls-103" points="289.67 195.29 289.67 799.58 196.4 841.83 198.79 226.53 289.67 195.29"/>
    </clipPath>
    <linearGradient id="linear-gradient-12" x1="228.86" y1="556.04" x2="401.83" y2="556.04" xlink:href="#linear-gradient-4"/>
    <linearGradient id="linear-gradient-13" x1="228.86" y1="556.04" x2="401.83" y2="556.04" xlink:href="#linear-gradient-4"/>
    <clipPath id="clippath-6">
      <path class="cls-100" d="M229.21,780.72l1.07-507.28,171.55,47.83c-.26,503.95-42.19,498.22-.9,352.34-5.31,18.78-48.03,177.45-95.4,164.25-46.72-13.03-80.5-38.42-76.32-57.13Z"/>
    </clipPath>
    <clipPath id="clippath-7">
      <ellipse class="cls-2" cx="316.05" cy="297.35" rx="35.33" ry="89.05" transform="translate(-55.09 522.21) rotate(-74.46)"/>
    </clipPath>
    <linearGradient id="linear-gradient-14" x1="1469.36" y1="251.07" x2="1469.36" y2="869.27" gradientTransform="translate(-1312)" xlink:href="#linear-gradient-4"/>
    <linearGradient id="linear-gradient-15" x1="1469.36" y1="251.07" x2="1469.36" y2="869.27" gradientTransform="translate(-1312)" xlink:href="#linear-gradient-4"/>
    <clipPath id="clippath-8">
      <polygon class="cls-97" points="182.75 251.07 182.75 847.72 131.97 869.27 131.97 265.54 182.75 251.07"/>
    </clipPath>
    <linearGradient id="linear-gradient-16" x1="1505.45" y1="227.38" x2="1505.45" y2="161.83" gradientTransform="translate(-1312)" gradientUnits="userSpaceOnUse">
      <stop offset="0" stop-color="#721208"/>
      <stop offset="1" stop-color="#a51704"/>
    </linearGradient>
    <linearGradient id="linear-gradient-17" x1="1505.45" y1="209.96" x2="1601.67" y2="209.96" xlink:href="#linear-gradient-5"/>
    <linearGradient id="linear-gradient-18" x1="867.01" y1="608.31" x2="696.25" y2="689.38" xlink:href="#linear-gradient-3"/>
    <linearGradient id="linear-gradient-19" x1="929.54" y1="682.2" x2="695.83" y2="779.65" xlink:href="#linear-gradient-3"/>
    <linearGradient id="linear-gradient-20" x1="482.07" y1="466.95" x2="482.07" y2="836.53" gradientUnits="userSpaceOnUse">
      <stop offset="0" stop-color="#0faa7e"/>
      <stop offset="1" stop-color="#a0efe6"/>
    </linearGradient>
    <linearGradient id="linear-gradient-21" x1="655.05" y1="466.1" x2="655.05" y2="835.68" gradientUnits="userSpaceOnUse">
      <stop offset="0" stop-color="#053c20"/>
      <stop offset="1" stop-color="#137a6e"/>
    </linearGradient>
    <linearGradient id="linear-gradient-22" x1="685.25" y1="667.57" x2="685.25" y2="863.86" xlink:href="#linear-gradient-20"/>
    <linearGradient id="linear-gradient-23" x1="796.46" y1="661.87" x2="796.46" y2="863.36" xlink:href="#linear-gradient-21"/>
    <clipPath id="clippath-9">
      <polygon class="cls-53" points="422.98 465.01 471.2 410.41 538.43 447.35 491.19 500.99 422.98 465.01"/>
    </clipPath>
    <clipPath id="clippath-10">
      <polygon class="cls-53" points="502.84 505.86 551.05 451.27 618.29 488.21 571.05 541.85 502.84 505.86"/>
    </clipPath>
    <linearGradient id="linear-gradient-24" x1="625.25" y1="741.46" x2="369.24" y2="904.38" gradientUnits="userSpaceOnUse">
      <stop offset=".11" stop-color="#000" stop-opacity="0"/>
      <stop offset="1" stop-color="#000"/>
    </linearGradient>
    <linearGradient id="Green_Shade-3" data-name="Green Shade" x1="428.43" y1="906.02" x2="584.29" y2="906.02" xlink:href="#Green_Shade"/>
    <linearGradient id="linear-gradient-25" x1="408.82" y1="883.53" x2="798.48" y2="883.53" gradientTransform="translate(993.12) rotate(-180) scale(1 -1)" gradientUnits="userSpaceOnUse">
      <stop offset="0" stop-color="#a0efe6"/>
      <stop offset="1" stop-color="#0faa7e"/>
    </linearGradient>
    <linearGradient id="linear-gradient-26" x1="487.27" y1="811.46" x2="589.2" y2="811.46" xlink:href="#linear-gradient-25"/>
    <linearGradient id="linear-gradient-27" x1="487.27" y1="811.46" x2="589.2" y2="811.46" xlink:href="#linear-gradient-25"/>
    <clipPath id="clippath-11">
      <polygon class="cls-104" points="403.92 821.57 443.07 844.48 505.85 810.7 505.85 778.44 443.07 810.7 403.92 787.21 403.92 821.57"/>
    </clipPath>
    <linearGradient id="Green_Shade-4" data-name="Green Shade" x1="443.07" y1="805.06" x2="513.98" y2="805.06" xlink:href="#Green_Shade"/>
    <clipPath id="clippath-12">
      <polygon class="cls-50" points="423.43 733.92 350.43 674.83 264.36 726.02 333.58 787.28 423.43 733.92"/>
    </clipPath>
    <linearGradient id="linear-gradient-28" x1="474.21" y1="943.96" x2="506.84" y2="943.96" xlink:href="#linear-gradient-25"/>
    <linearGradient id="Green_Shade-5" data-name="Green Shade" x1="435.45" y1="934.1" x2="505.85" y2="934.1" xlink:href="#Green_Shade"/>
    <linearGradient id="Red_Front" data-name="Red Front" x1="125.53" y1="893.32" x2="125.53" y2="979.53" gradientUnits="userSpaceOnUse">
      <stop offset="0" stop-color="#a51704"/>
      <stop offset=".73" stop-color="#e24325"/>
      <stop offset="1" stop-color="#e44426"/>
    </linearGradient>
    <linearGradient id="Red_Shade" data-name="Red Shade" x1="147.54" y1="938.24" x2="188.14" y2="938.24" gradientUnits="userSpaceOnUse">
      <stop offset="0" stop-color="#721208"/>
      <stop offset="1" stop-color="#a51704"/>
    </linearGradient>
    <linearGradient id="Green_Shade-6" data-name="Green Shade" x1="156" y1="957.89" x2="156" y2="981.38" xlink:href="#Green_Shade"/>
    <linearGradient id="Red_Top" data-name="Red Top" x1="107.93" y1="956.17" x2="121.48" y2="956.17" gradientUnits="userSpaceOnUse">
      <stop offset="0" stop-color="#dcefe5"/>
      <stop offset=".03" stop-color="#fff"/>
      <stop offset="1" stop-color="#f9c2bb"/>
    </linearGradient>
    <linearGradient id="Red_Front-2" data-name="Red Front" x1="127.22" y1="941.94" x2="147.53" y2="941.94" xlink:href="#Red_Front"/>
    <linearGradient id="Red_Shade-2" data-name="Red Shade" x1="128.71" y1="942.08" x2="147.53" y2="942.08" xlink:href="#Red_Shade"/>
    <linearGradient id="Red_Shade-3" data-name="Red Shade" x1="130.61" y1="928.8" x2="141.68" y2="928.8" xlink:href="#Red_Shade"/>
    <linearGradient id="Red_Top-2" data-name="Red Top" x1="142.45" y1="935.54" x2="142.45" y2="893.32" xlink:href="#Red_Top"/>
    <linearGradient id="Red_Shade-4" data-name="Red Shade" x1="129.27" y1="910.64" x2="164.54" y2="910.64" xlink:href="#Red_Shade"/>
    <linearGradient id="Red_Shade-5" data-name="Red Shade" x1="140.84" y1="934.06" x2="181.46" y2="934.06" gradientTransform="translate(15.44 .35) rotate(.54)" xlink:href="#Red_Shade"/>
    <linearGradient id="Green_Shade-7" data-name="Green Shade" x1="169.37" y1="915.73" x2="169.37" y2="951.83" xlink:href="#Green_Shade"/>
    <linearGradient id="Red_Top-3" data-name="Red Top" x1="164.91" y1="967.6" x2="164.91" y2="958.27" xlink:href="#Red_Top"/>
    <linearGradient id="Red_Top-4" data-name="Red Top" x1="185.83" y1="956.16" x2="185.83" y2="946.82" xlink:href="#Red_Top"/>
    <linearGradient id="Green_Shade-8" data-name="Green Shade" x1="115.6" y1="916.9" x2="115.6" y2="925.86" xlink:href="#Green_Shade"/>
    <linearGradient id="Red_Top-5" data-name="Red Top" x1="179.97" y1="974.07" x2="179.97" y2="963.47" xlink:href="#Red_Top"/>
    <linearGradient id="Red_Front-3" data-name="Red Front" x1="177.05" y1="966.99" x2="177.05" y2="973.9" xlink:href="#Red_Front"/>
    <linearGradient id="Red_Front-4" data-name="Red Front" x1="176.38" y1="945.2" x2="176.38" y2="953.98" xlink:href="#Red_Front"/>
  </defs>
  <g class="cls-108">
    <g id="TREE_2" data-name="TREE 2">
      <g>
        <path class="cls-81" d="M146.88,824.53c.46-3.92-4.55-6.52-14.35-6.52-15.48,0-37.11,6.48-48.23,14.44-2.46,1.76-4.22,3.46-5.29,5.05-2.26,3.35-1.41,6.17,2.7,7.85,2.24,.92,5.32,1.43,9.14,1.52l-1.99,1.42-4.02,2.88c-.55,.39-.37,.71,.39,.71s1.83-.32,2.38-.71l4.02-2.87,1.99-1.42c4.09-.1,8.59-.61,13.4-1.53,12.96-2.47,25.77-7.41,33.42-12.89,4.08-2.92,6.18-5.64,6.44-7.91Z"/>
        <path class="cls-4" d="M59.57,826.96c7.31,4.85,15.61,5.74,23.48,3.89v-3.71c-4.63-.4-8.76-1.82-12-4.16-.65-.47-.78-1.36-.27-1.97,.5-.61,1.44-.73,2.1-.26,2.77,2.01,6.19,3.2,10.18,3.58v-4.92c0-.78,.67-1.4,1.5-1.4s1.5,.63,1.5,1.4v10.6c4.72-1.55,9.21-4.06,13.15-7.26,8.02-6.38,11.43-15.15,10.7-24.34-5.43-7.75-14.76-12.87-25.35-12.87-16.72,0-30.33,12.78-30.33,28.5,0,3.47,.67,6.83,1.9,9.96,1.06,1.03,2.2,2.03,3.45,2.97Z"/>
        <path class="cls-14" d="M109.89,798.41c.73,9.19-2.68,17.96-10.7,24.34-3.94,3.21-8.43,5.72-13.15,7.26l-2.99,2.39v-1.55c-7.87,1.85-16.17,.96-23.48-3.89-1.25-.94-2.39-1.94-3.45-2.97,2.61,6.61,7.78,12.17,14.76,15.48,3.81,1.81,7.9,2.82,12.17,3v-8.75c3.51,.37,6.01,4.46,15.04-9.19,.44-.66,1.39-.81,2.08-.37,.68,.44,.86,1.31,.4,1.95-3.9,5.39-8.66,9.02-14.53,11.07v5.3c4.27-.19,8.36-1.2,12.17-3.01,10.28-4.88,16.66-14.63,16.66-25.44,0-5.77-1.84-11.13-4.98-15.62Z"/>
        <path class="cls-46" d="M86.04,842.49v-5.3c-.34,.12-.68,.23-1.02,.34-.16,.05-.32,.07-.47,.07-.63,0-1.21-.37-1.42-.96-.26-.74,.16-1.53,.95-1.78,.67-.21,1.33-.44,1.97-.69v-14.76c0-.78-.67-1.4-1.5-1.4s-1.5,.63-1.5,1.4v4.92c.51,.05,1.03,.09,1.56,.11,.82,.03,1.47,.69,1.43,1.46-.03,.76-.7,1.35-1.49,1.35-.02,0-.04,0-.06,0-.48-.02-.96-.06-1.43-.1v23.83c0,.78,.67,1.4,1.5,1.4s1.5-.63,1.5-1.4v-8.48Z"/>
        <path class="cls-46" d="M100.56,826.12c.46-.64,.29-1.52-.4-1.95-.68-.44-1.61-.27-2.08,.37-3.35,4.63-7.22,7.73-12.05,9.63-.64,.25-1.29,.48-1.97,.69-.78,.24-1.21,1.04-.95,1.78,.21,.59,.79,.96,1.42,.96,.16,0,.32-.02,.47-.07,.35-.11,.69-.22,1.02-.34,5.86-2.05,10.63-5.68,14.53-11.07Z"/>
        <path class="cls-46" d="M70.77,821.01c-.5,.61-.38,1.5,.27,1.97,3.24,2.35,7.37,3.77,12,4.16,.47,.04,.95,.08,1.43,.1,.02,0,.04,0,.06,0,.8,0,1.46-.59,1.49-1.35,.03-.78-.61-1.43-1.43-1.46-.53-.02-1.05-.06-1.56-.11-3.98-.37-7.4-1.57-10.18-3.58-.65-.47-1.59-.36-2.1,.26Z"/>
      </g>
    </g>
    <g id="TREE_1" data-name="TREE 1">
      <g>
        <path class="cls-81" d="M769.08,932.13c.46-3.92-4.55-6.52-14.35-6.52-15.48,0-37.11,6.48-48.23,14.44-2.46,1.76-4.22,3.46-5.29,5.05-2.26,3.35-1.41,6.17,2.7,7.85,2.24,.92,5.32,1.43,9.14,1.52l-1.99,1.42-4.02,2.88c-.55,.39-.37,.71,.39,.71s1.83-.32,2.38-.71l4.02-2.87,1.99-1.42c4.09-.1,8.59-.61,13.4-1.53,12.96-2.47,25.77-7.41,33.42-12.89,4.08-2.92,6.18-5.64,6.44-7.91Z"/>
        <path class="cls-77" d="M681.77,934.56c7.31,4.85,15.61,5.74,23.48,3.89v-3.71c-4.63-.4-8.76-1.82-12-4.16-.65-.47-.78-1.36-.27-1.97,.5-.61,1.44-.73,2.1-.26,2.77,2.01,6.19,3.2,10.18,3.58v-4.92c0-.78,.67-1.4,1.5-1.4s1.5,.63,1.5,1.4v10.6c4.72-1.55,9.21-4.06,13.15-7.26,8.02-6.38,11.43-15.15,10.7-24.34-5.43-7.75-14.76-12.87-25.35-12.87-16.72,0-30.33,12.78-30.33,28.5,0,3.47,.67,6.83,1.9,9.96,1.06,1.03,2.2,2.03,3.45,2.97Z"/>
        <path class="cls-56" d="M732.09,906.01c.73,9.19-2.68,17.96-10.7,24.34-3.94,3.21-8.43,5.72-13.15,7.26l-2.99,2.39v-1.55c-7.87,1.85-16.17,.96-23.48-3.89-1.25-.94-2.39-1.94-3.45-2.97,2.61,6.61,7.78,12.17,14.76,15.48,3.81,1.81,7.9,2.82,12.17,3v-8.75c3.51,.37,6.01,4.46,15.04-9.19,.44-.66,1.39-.81,2.08-.37,.68,.44,.86,1.31,.4,1.95-3.9,5.39-8.66,9.02-14.53,11.07v5.3c4.27-.19,8.36-1.2,12.17-3.01,10.28-4.88,16.66-14.63,16.66-25.44,0-5.77-1.84-11.13-4.98-15.62Z"/>
        <path class="cls-46" d="M708.24,950.09v-5.3c-.34,.12-.68,.23-1.02,.34-.16,.05-.32,.07-.47,.07-.63,0-1.21-.37-1.42-.96-.26-.74,.16-1.53,.95-1.78,.67-.21,1.33-.44,1.97-.69v-14.76c0-.78-.67-1.4-1.5-1.4s-1.5,.63-1.5,1.4v4.92c.51,.05,1.03,.09,1.56,.11,.82,.03,1.47,.69,1.43,1.46-.03,.76-.7,1.35-1.49,1.35-.02,0-.04,0-.06,0-.48-.02-.96-.06-1.43-.1v23.83c0,.78,.67,1.4,1.5,1.4s1.5-.63,1.5-1.4v-8.48Z"/>
        <path class="cls-46" d="M722.77,933.72c.46-.64,.29-1.52-.4-1.95-.68-.44-1.61-.27-2.08,.37-3.35,4.63-7.22,7.73-12.05,9.63-.64,.25-1.29,.48-1.97,.69-.78,.24-1.21,1.04-.95,1.78,.21,.59,.79,.96,1.42,.96,.16,0,.32-.02,.47-.07,.35-.11,.69-.22,1.02-.34,5.86-2.05,10.63-5.68,14.53-11.07Z"/>
        <path class="cls-46" d="M692.98,928.61c-.5,.61-.38,1.5,.27,1.97,3.24,2.35,7.37,3.77,12,4.16,.47,.04,.95,.08,1.43,.1,.02,0,.04,0,.06,0,.8,0,1.46-.59,1.49-1.35,.03-.78-.61-1.43-1.43-1.46-.53-.02-1.05-.06-1.56-.11-3.98-.37-7.4-1.57-10.18-3.58-.65-.47-1.59-.36-2.1,.26Z"/>
      </g>
    </g>
    <g id="SKYSCRAPPER_2" data-name="SKYSCRAPPER 2">
      <g>
        <path class="cls-86" d="M414.98,495.3l329.37-186.95s108.05-25.12,165.43,16.53c57.38,41.66-333.02,220.27-333.02,220.27l-161.77-49.85"/>
        <g>
          <path class="cls-76" d="M414.09,484.89l1.19-391.81,190.34,53.07s-.2,388.11-1,390.95c-5.9,20.83-53.29,25.84-105.85,11.19-51.84-14.45-89.32-42.63-84.68-63.39Z"/>
          <g class="cls-5">
            <g class="cls-82">
              <path class="cls-10" d="M606.03,174.28c-7.24,20.17-54.5,24.81-106.8,10.25-47.6-13.27-83.3-37.86-85.99-58.01v-.08"/>
              <path class="cls-10" d="M606.12,204.44c-7.24,20.17-54.5,24.81-106.8,10.25-47.6-13.27-83.3-37.86-85.99-58.01v-.08"/>
              <path class="cls-10" d="M606.08,234.22c-7.24,20.17-54.5,24.81-106.8,10.25-47.6-13.27-83.3-37.86-85.99-58.01v-.08"/>
              <path class="cls-10" d="M606.17,264.39c-7.24,20.17-54.5,24.81-106.8,10.25-47.6-13.27-83.3-37.86-85.99-58.01v-.08"/>
              <path class="cls-10" d="M606.1,293.64c-7.24,20.17-54.5,24.81-106.8,10.25-47.6-13.27-83.3-37.86-85.99-58.01v-.08"/>
              <path class="cls-10" d="M606.19,323.81c-7.24,20.17-54.5,24.81-106.8,10.25-47.6-13.27-83.3-37.86-85.99-58.01v-.08"/>
              <path class="cls-10" d="M606.15,353.59c-7.24,20.17-54.5,24.81-106.8,10.25-47.6-13.27-83.3-37.86-85.99-58.01v-.08"/>
              <path class="cls-10" d="M606.24,383.76c-7.24,20.17-54.5,24.81-106.8,10.25-47.6-13.27-83.3-37.86-85.99-58.01v-.08"/>
              <path class="cls-10" d="M605.93,412.1c-7.24,20.17-54.5,24.81-106.8,10.25-47.6-13.27-83.3-37.86-85.99-58.01v-.08"/>
              <path class="cls-10" d="M606.02,442.27c-7.24,20.17-54.5,24.81-106.8,10.25-47.6-13.27-83.3-37.86-85.99-58.01v-.08"/>
              <path class="cls-10" d="M605.97,472.04c-7.24,20.17-54.5,24.81-106.8,10.25-47.6-13.27-83.3-37.86-85.99-58.01v-.08"/>
              <path class="cls-10" d="M606.07,502.21c-7.24,20.17-54.5,24.81-106.8,10.25-47.6-13.27-83.3-37.86-85.99-58.01v-.08"/>
              <line class="cls-10" x1="596.1" y1="153.27" x2="596.1" y2="546.26"/>
              <line class="cls-10" x1="577.28" y1="159.73" x2="577.87" y2="553.09"/>
              <line class="cls-10" x1="555.99" y1="162.37" x2="555.99" y2="555.37"/>
              <line class="cls-10" x1="536.17" y1="159.73" x2="536.17" y2="553.86"/>
              <line class="cls-10" x1="517.04" y1="157.82" x2="517.04" y2="550.81"/>
              <line class="cls-10" x1="497.81" y1="151.36" x2="497.88" y2="547.39"/>
              <line class="cls-10" x1="478.64" y1="145.57" x2="478.64" y2="539.71"/>
              <line class="cls-10" x1="461.65" y1="138.85" x2="461.65" y2="532.98"/>
              <line class="cls-10" x1="443.59" y1="130.47" x2="443.59" y2="523.46"/>
              <line class="cls-10" x1="426.02" y1="116.37" x2="426.02" y2="510.75"/>
            </g>
            <polyline class="cls-109" points="574.31 117.92 574.31 584.34 653.94 544.71 637.76 116.08 574.31 117.92"/>
            <rect class="cls-89" x="557.83" y="113.8" width="8.24" height="462.9"/>
            <rect class="cls-87" x="414.98" y="71.22" width="50.82" height="462.9"/>
          </g>
        </g>
        <g>
          <ellipse class="cls-2" cx="510.45" cy="119.61" rx="39.2" ry="98.8" transform="translate(258.5 579.38) rotate(-74.46)"/>
          <g class="cls-61">
            <polygon class="cls-52" points="610.03 122.04 559.2 148.14 557.83 95.94 610.03 122.04"/>
          </g>
        </g>
        <g>
          <polygon class="cls-49" points="563.05 79.16 563.05 146.35 555.09 150.05 555.09 82.17 563.05 79.16"/>
          <polygon class="cls-47" points="563.05 79.16 555.09 82.17 456.28 27.91 463.45 25.22 563.05 79.16"/>
          <polygon class="cls-47" points="555.09 82.17 555.09 150.05 456.28 93.8 456.28 27.91 555.09 82.17"/>
        </g>
      </g>
    </g>
    <g id="SKYSCRAPPER_1" data-name="SKYSCRAPPER 1">
      <g>
        <polygon class="cls-51" points="130.62 871.64 276.48 877.54 502.8 761.36 454.25 733.38 501.1 729.61 531.57 746.6 686.7 666.96 648.32 621.16 504.72 702.86 406.74 646.47 130.62 871.64"/>
        <g>
          <polygon class="cls-50" points="327.6 178.58 227.3 139.93 227.3 171.73 289.67 195.29 327.6 178.58"/>
          <polygon class="cls-50" points="227.3 827.84 131.97 869.27 131.97 267.77 224.81 240.1 227.3 827.84"/>
          <polygon class="cls-50" points="357.62 768.37 214.83 830.65 214.83 243.49 356.49 201.99 357.62 768.37"/>
          <polygon class="cls-80" points="131.97 267.77 241.56 157.37 356.49 201.99 131.97 267.77"/>
          <g>
            <polygon class="cls-78" points="367.18 161.83 367.18 766.12 303.03 793.42 303.03 188.99 367.18 161.83"/>
            <g class="cls-64">
              <polygon class="cls-1" points="500.79 179.42 131.68 616.69 131.68 887.24 537.84 733.83 500.79 179.42"/>
              <polygon class="cls-1" points="494.6 222.75 125.49 660.02 125.49 930.57 531.65 777.15 494.6 222.75"/>
              <g class="cls-73">
                <path class="cls-51" d="M190.39,629.75l296.84-168.49s97.38-22.64,149.1,14.9c51.71,37.55-300.14,352.68-300.14,352.68l-145.8-199.09"/>
                <g>
                  <path class="cls-74" d="M189.59,620.37l1.07-353.12,171.55,47.83s-.18,503.95-.9,506.5c-5.31,18.78-48.03,23.29-95.4,10.08-46.72-13.03-80.5-192.58-76.32-211.29Z"/>
                  <g class="cls-63">
                    <g class="cls-82">
                      <path class="cls-10" d="M362.58,340.43c-6.53,18.17-49.12,22.36-96.26,9.24-42.9-11.96-75.08-34.12-77.5-52.28v-.08"/>
                      <path class="cls-10" d="M362.66,367.62c-6.53,18.17-49.12,22.36-96.26,9.24-42.9-11.96-75.08-34.12-77.5-52.28v-.08"/>
                      <path class="cls-10" d="M362.62,394.45c-6.53,18.17-49.12,22.36-96.26,9.24-42.9-11.96-75.08-34.12-77.5-52.28v-.08"/>
                      <path class="cls-10" d="M362.7,421.64c-6.53,18.17-49.12,22.36-96.26,9.24-42.9-11.96-75.08-34.12-77.5-52.28v-.08"/>
                      <path class="cls-10" d="M362.64,448.01c-6.53,18.17-49.12,22.36-96.26,9.24-42.9-11.96-75.08-34.12-77.5-52.28v-.08"/>
                      <path class="cls-10" d="M362.72,475.2c-6.53,18.17-49.12,22.36-96.26,9.24-42.9-11.96-75.08-34.12-77.5-52.28v-.08"/>
                      <path class="cls-10" d="M362.68,502.03c-6.53,18.17-49.12,22.36-96.26,9.24-42.9-11.96-75.08-34.12-77.5-52.28v-.08"/>
                      <path class="cls-10" d="M362.76,529.22c-6.53,18.17-49.12,22.36-96.26,9.24-42.9-11.96-75.08-34.12-77.5-52.28v-.08"/>
                      <path class="cls-10" d="M362.48,554.76c-6.53,18.17-49.12,22.36-96.26,9.24-42.9-11.96-75.08-34.12-77.5-52.28v-.08"/>
                      <path class="cls-10" d="M362.57,581.95c-140.78,391.91,85.13,59.72-96.26,9.24-42.9-11.96-75.08-34.12-77.5-52.28v-.08"/>
                      <path class="cls-10" d="M362.52,762.95c-6.53,18.17-49.12,22.36-96.26,9.24-42.9-11.96-75.08-188.29-77.5-206.44v-.08"/>
                      <path class="cls-10" d="M362.61,790.14c-6.53,18.17-49.12,22.36-96.26,9.24-42.9-11.96-75.08-188.29-77.5-206.44v-.08"/>
                      <line class="cls-10" x1="353.63" y1="321.49" x2="353.63" y2="829.84"/>
                      <line class="cls-10" x1="336.66" y1="327.31" x2="337.19" y2="835.99"/>
                      <line class="cls-10" x1="317.47" y1="329.7" x2="317.47" y2="838.05"/>
                      <line class="cls-10" x1="299.61" y1="327.31" x2="299.61" y2="836.69"/>
                      <line class="cls-10" x1="282.37" y1="325.59" x2="282.37" y2="833.94"/>
                      <line class="cls-10" x1="265.04" y1="319.78" x2="265.11" y2="830.85"/>
                      <line class="cls-10" x1="247.76" y1="314.56" x2="247.76" y2="823.93"/>
                      <line class="cls-10" x1="232.45" y1="308.5" x2="232.45" y2="817.87"/>
                      <line class="cls-10" x1="216.18" y1="300.95" x2="216.18" y2="809.3"/>
                      <line class="cls-10" x1="200.34" y1="288.24" x2="200.34" y2="797.84"/>
                    </g>
                    <polyline class="cls-109" points="333.99 443.8 333.99 864.16 405.76 828.44 391.17 442.14 333.99 289.63"/>
                    <rect class="cls-89" x="319.13" y="440.08" width="7.43" height="417.19"/>
                    <rect class="cls-88" x="190.39" y="247.54" width="45.8" height="571.35"/>
                  </g>
                </g>
                <g>
                  <ellipse class="cls-2" cx="276.44" cy="291.16" rx="35.33" ry="89.05" transform="translate(-78.12 479.51) rotate(-74.46)"/>
                  <g class="cls-62">
                    <polygon class="cls-52" points="366.18 293.35 320.37 316.87 319.13 269.83 366.18 293.35"/>
                  </g>
                </g>
                <g>
                  <polygon class="cls-49" points="323.84 254.69 323.84 315.27 316.67 318.58 316.67 257.4 323.84 254.69"/>
                  <polygon class="cls-47" points="323.84 254.69 316.67 257.4 227.61 208.52 234.08 206.08 323.84 254.69"/>
                  <polygon class="cls-47" points="316.67 257.4 316.67 318.58 227.61 267.9 227.61 208.52 316.67 257.4"/>
                </g>
              </g>
            </g>
          </g>
          <g>
            <polygon class="cls-102" points="289.67 195.29 289.67 799.58 196.4 841.83 198.79 226.53 289.67 195.29"/>
            <g class="cls-68">
              <polygon class="cls-1" points="409.18 220.36 40.07 657.63 40.07 928.18 446.23 774.77 409.18 220.36"/>
              <polygon class="cls-3" points="411.66 516.88 42.54 954.16 42.54 916.38 448.71 762.97 411.66 516.88"/>
              <g class="cls-60">
                <path class="cls-51" d="M230,790.1l296.84-322.65s97.38-22.64,149.1,14.9c51.71,37.55-300.14,352.68-300.14,352.68l-145.8-44.93"/>
                <g>
                  <path class="cls-101" d="M229.21,780.72l1.07-507.28,171.55,47.83c-.26,503.95-42.19,498.22-.9,352.34-5.31,18.78-48.03,177.45-95.4,164.25-46.72-13.03-80.5-38.42-76.32-57.13Z"/>
                  <g class="cls-67">
                    <g class="cls-82">
                      <path class="cls-10" d="M402.19,346.62c-6.53,18.17-49.12,22.36-96.26,9.24-42.9-11.96-75.08-34.12-77.5-52.28v-.08"/>
                      <path class="cls-10" d="M402.27,373.81c-6.53,18.17-49.12,22.36-96.26,9.24-42.9-11.96-75.08-34.12-77.5-52.28v-.08"/>
                      <path class="cls-10" d="M402.23,400.65c-6.53,18.17-49.12,22.36-96.26,9.24-42.9-11.96-75.08-34.12-77.5-52.28v-.08"/>
                      <path class="cls-10" d="M402.32,427.84c-6.53,18.17-49.12,22.36-96.26,9.24-42.9-11.96-75.08-34.12-77.5-52.28v-.08"/>
                      <path class="cls-10" d="M402.25,454.2c-6.53,18.17-49.12,22.36-96.26,9.24-42.9-11.96-75.08-34.12-77.5-52.28v-.08"/>
                      <path class="cls-10" d="M402.34,481.39c-6.53,18.17-49.12,22.36-96.26,9.24-42.9-11.96-75.08-34.12-77.5-52.28v-.08"/>
                      <path class="cls-10" d="M402.29,508.23c-6.53,18.17-49.12,22.36-96.26,9.24-42.9-11.96-75.08-34.12-77.5-52.28v-.08"/>
                      <path class="cls-10" d="M402.38,535.42c-6.53,18.17-49.12,22.36-96.26,9.24-42.9-11.96-75.08-34.12-77.5-52.28v-.08"/>
                      <path class="cls-10" d="M402.1,560.96c-6.53,18.17-49.12,22.36-96.26,9.24-42.9-11.96-75.08-34.12-77.5-52.28v-.08"/>
                      <path class="cls-10" d="M402.18,588.15c-140.78,391.91,85.13,59.72-96.26,9.24-42.9-11.96-75.08-34.12-77.5-52.28v-.08"/>
                      <path class="cls-10" d="M402.14,769.15c-6.53,18.17-49.12,22.36-96.26,9.24-42.9-11.96-75.08-188.29-77.5-206.44v-.08"/>
                      <path class="cls-10" d="M402.22,796.34c-6.53,18.17-49.12,22.36-96.26,9.24-42.9-11.96-75.08-188.29-77.5-206.44v-.08"/>
                      <line class="cls-10" x1="393.24" y1="327.68" x2="393.24" y2="836.03"/>
                      <line class="cls-10" x1="376.28" y1="487.67" x2="376.81" y2="842.18"/>
                      <line class="cls-10" x1="357.09" y1="490.05" x2="357.09" y2="844.24"/>
                      <line class="cls-10" x1="339.22" y1="333.51" x2="339.22" y2="842.88"/>
                      <line class="cls-10" x1="321.99" y1="331.79" x2="321.99" y2="840.14"/>
                      <line class="cls-10" x1="304.65" y1="325.97" x2="304.72" y2="837.05"/>
                      <line class="cls-10" x1="287.38" y1="320.75" x2="287.38" y2="830.13"/>
                      <line class="cls-10" x1="272.06" y1="314.69" x2="272.06" y2="824.07"/>
                      <line class="cls-10" x1="255.79" y1="307.14" x2="255.79" y2="815.49"/>
                      <line class="cls-10" x1="239.96" y1="294.43" x2="239.96" y2="804.03"/>
                    </g>
                    <polyline class="cls-109" points="373.6 449.99 373.6 870.35 445.37 680.48 430.78 294.17 373.6 295.83"/>
                    <rect class="cls-89" x="358.75" y="446.28" width="7.43" height="417.19"/>
                    <rect class="cls-88" x="230" y="253.74" width="45.8" height="571.35"/>
                  </g>
                </g>
                <g>
                  <ellipse class="cls-2" cx="316.05" cy="297.35" rx="35.33" ry="89.05" transform="translate(-55.09 522.21) rotate(-74.46)"/>
                  <g class="cls-65">
                    <polygon class="cls-52" points="405.79 299.54 359.99 323.06 358.75 276.02 405.79 299.54"/>
                  </g>
                </g>
                <g>
                  <polygon class="cls-49" points="363.45 260.88 363.45 321.46 356.29 324.77 356.29 263.59 363.45 260.88"/>
                  <polygon class="cls-47" points="363.45 260.88 356.29 263.59 267.23 214.71 273.69 212.27 363.45 260.88"/>
                  <polygon class="cls-47" points="356.29 263.59 356.29 324.77 267.23 274.09 267.23 214.71 356.29 263.59"/>
                </g>
              </g>
            </g>
          </g>
          <g>
            <polygon class="cls-92" points="182.75 251.07 182.75 847.72 131.97 869.27 131.97 265.54 182.75 251.07"/>
            <g class="cls-66">
              <polygon class="cls-1" points="323.76 475.55 -45.35 758.66 -45.35 875.05 360.81 875.79 323.76 475.55"/>
            </g>
          </g>
          <polygon class="cls-98" points="214.83 184.29 214.83 161.83 172.06 206.45 172.06 227.38 214.83 184.29"/>
          <path class="cls-46" d="M260.27,113.86l5.02,72.31c.18,2.52-2.12,4.66-5.02,4.66h0c-2.9,0-5.2-2.13-5.02-4.66l5.02-72.31Z"/>
          <path class="cls-49" d="M257.59,112.75c0,1.23,1.2,2.23,2.67,2.23s2.67-1,2.67-2.23-1.2-2.23-2.67-2.23-2.67,1-2.67,2.23Z"/>
        </g>
        <polygon class="cls-99" points="198.79 226.53 193.45 224.72 284.65 193.4 289.67 195.29 198.79 226.53"/>
      </g>
    </g>
    <g id="FACTORY_2" data-name="FACTORY 2">
      <g>
        <polygon class="cls-84" points="838.29 523.36 1055.34 617.49 758.49 755.52 685.77 597.06 838.29 523.36"/>
        <polygon class="cls-83" points="814.22 729.61 926.28 677.5 1027.61 721.45 730.76 859.48 658.04 701.02 814.22 729.61"/>
        <g>
          <polygon class="cls-94" points="395.57 466.95 395.57 745.44 568.56 836.53 568.56 555.44 395.57 466.95"/>
          <polygon class="cls-95" points="741.55 466.1 741.55 744.59 568.56 835.68 568.56 554.59 741.55 466.1"/>
          <polygon class="cls-48" points="395.57 466.95 568.56 557.19 741.55 466.1 568.56 378.46 395.57 466.95"/>
          <polygon class="cls-93" points="629.65 667.57 629.65 802.67 740.86 863.86 740.86 724.64 629.65 667.57"/>
          <polygon class="cls-96" points="852.06 661.87 852.06 799.56 740.86 863.36 740.86 724.14 852.06 661.87"/>
          <polygon class="cls-48" points="629.65 667.57 740.86 725.67 852.06 661.87 740.86 605.3 629.65 667.57"/>
          <polygon class="cls-7" points="418.71 606.81 538.96 672.5 538.96 648.96 418.71 583.27 418.71 606.81"/>
          <polygon class="cls-7" points="418.71 659.94 538.96 725.63 538.96 702.08 418.71 636.4 418.71 659.94"/>
          <polygon class="cls-7" points="418.71 552.03 478.84 584.87 478.84 561.33 418.71 528.49 418.71 552.03"/>
          <polygon class="cls-7" points="549.11 786.86 548.71 825.32 527.49 813.87 527.89 775.12 549.11 786.86"/>
          <polygon class="cls-7" points="718.16 532.97 597.91 598.66 597.91 575.12 718.16 509.43 718.16 532.97"/>
          <polygon class="cls-7" points="716.63 584.8 596.38 650.49 596.38 626.94 716.63 561.26 716.63 584.8"/>
          <polygon class="cls-7" points="837.44 705.56 758.49 748.99 758.49 733.43 837.44 689.99 837.44 705.56"/>
          <polygon class="cls-7" points="837.44 741.23 758.49 784.67 758.49 769.1 837.44 725.67 837.44 741.23"/>
          <polygon class="cls-7" points="643.82 708.16 722.76 751.6 722.76 736.03 643.82 692.59 643.82 708.16"/>
          <g>
            <polygon class="cls-53" points="422.98 465.01 471.2 410.41 538.43 447.35 491.19 500.99 422.98 465.01"/>
            <g class="cls-69">
              <g>
                <g>
                  <line class="cls-13" x1="454.83" y1="416.7" x2="536.55" y2="463.13"/>
                  <line class="cls-13" x1="439.97" y1="431.56" x2="521.69" y2="477.99"/>
                  <line class="cls-13" x1="425.12" y1="446.41" x2="506.83" y2="492.84"/>
                </g>
                <g>
                  <line class="cls-8" x1="532.83" y1="431.56" x2="471.55" y2="503.99"/>
                  <line class="cls-8" x1="509.62" y1="419.49" x2="448.33" y2="491.91"/>
                  <line class="cls-8" x1="486.4" y1="407.41" x2="425.12" y2="479.84"/>
                </g>
              </g>
            </g>
          </g>
          <line class="cls-12" x1="511.04" y1="580.82" x2="527.49" y2="588.93"/>
          <line class="cls-9" x1="519.27" y1="574.76" x2="519.27" y2="594.99"/>
          <polygon class="cls-7" points="646.57 811.6 717.27 850.88 717.27 810.84 646.57 772.61 646.57 811.6"/>
          <polyline class="cls-51" points="495.48 501.21 549.64 474.99 530.08 461.66 495.78 500.99"/>
          <g>
            <polygon class="cls-53" points="502.84 505.86 551.05 451.27 618.29 488.21 571.05 541.85 502.84 505.86"/>
            <g class="cls-71">
              <g>
                <g>
                  <line class="cls-13" x1="534.69" y1="457.56" x2="616.4" y2="503.99"/>
                  <line class="cls-13" x1="519.83" y1="472.41" x2="601.55" y2="518.84"/>
                  <line class="cls-13" x1="504.98" y1="487.27" x2="586.69" y2="533.7"/>
                </g>
                <g>
                  <line class="cls-8" x1="612.69" y1="472.41" x2="551.4" y2="544.84"/>
                  <line class="cls-8" x1="589.48" y1="460.34" x2="528.19" y2="532.77"/>
                  <line class="cls-8" x1="566.26" y1="448.27" x2="504.98" y2="520.7"/>
                </g>
              </g>
            </g>
          </g>
          <polyline class="cls-51" points="575.34 542.07 629.5 515.85 609.94 502.52 575.64 541.85"/>
        </g>
      </g>
    </g>
    <g id="FACTORY_1" data-name="FACTORY 1">
      <g>
        <polyline class="cls-85" points="337.81 730.38 454.88 721.05 584.29 827.39 605.63 815.97 716.83 877.17 428.43 1016.64"/>
        <polygon class="cls-58" points="584.29 795.41 584.29 926.65 428.43 1016.64 428.43 817.93 584.29 795.41"/>
        <polygon class="cls-106" points="350.5 791.67 428.43 817.93 428.43 1016.64 194.63 881.66 194.63 750.41 350.5 791.67"/>
        <polygon class="cls-48" points="584.29 795.41 428.43 885.4 194.63 750.41 350.5 660.43 584.29 795.41"/>
        <polyline class="cls-81" points="544.3 785.66 558.19 793.9 467.64 831.19 442.75 776.97 442.47 776.95 442.58 776.89 442.47 776.83 442.65 776.85 502.57 759.62 544.13 785.58"/>
        <g>
          <polygon class="cls-105" points="403.92 821.57 443.07 844.48 505.85 810.7 505.85 778.44 443.07 810.7 403.92 787.21 403.92 821.57"/>
          <g class="cls-72">
            <polygon class="cls-59" points="443.07 796.24 443.07 853.78 513.98 808.4 513.98 756.34 443.07 796.24"/>
          </g>
        </g>
        <polygon class="cls-48" points="505.74 778.49 505.85 778.44 505.68 778.45 466.7 755.07 404.2 787.18 403.92 787.21 404.02 787.27 403.92 787.33 404.09 787.31 443.07 810.7 505.57 778.58 505.85 778.56 505.74 778.49"/>
        <g>
          <g>
            <polygon class="cls-50" points="423.43 733.92 350.43 674.83 264.36 726.02 333.58 787.28 423.43 733.92"/>
            <g class="cls-70">
              <g>
                <g>
                  <line class="cls-6" x1="378.12" y1="674.38" x2="268.17" y2="740.35"/>
                  <line class="cls-6" x1="398.02" y1="695.33" x2="289.6" y2="759.74"/>
                  <line class="cls-6" x1="417.93" y1="716.27" x2="311.03" y2="779.13"/>
                </g>
                <g>
                  <line class="cls-11" x1="272.29" y1="707.73" x2="362.91" y2="786.81"/>
                  <line class="cls-11" x1="298.81" y1="691.48" x2="393.32" y2="769.56"/>
                  <line class="cls-11" x1="325.34" y1="675.23" x2="423.72" y2="752.32"/>
                </g>
              </g>
            </g>
          </g>
          <polyline class="cls-51" points="251.77 740.83 264.26 725.95 333.77 786.49"/>
        </g>
        <g>
          <polygon class="cls-50" points="568.47 836.97 568.47 859.2 559.03 864.91 559.03 842.74 568.47 836.97"/>
          <polygon class="cls-50" points="541.2 851.33 541.2 873.56 531.77 879.28 531.77 857.1 541.2 851.33"/>
          <g>
            <polygon class="cls-50" points="569.18 887.89 569.18 910.12 559.75 915.83 559.75 893.66 569.18 887.89"/>
            <polygon class="cls-50" points="541.92 902.25 541.92 924.48 532.49 930.2 532.49 908.02 541.92 902.25"/>
          </g>
          <g>
            <polygon class="cls-50" points="355.15 881.5 355.15 901.43 363.61 906.55 363.61 886.67 355.15 881.5"/>
            <polygon class="cls-50" points="378.4 896.02 378.4 915.95 386.85 921.08 386.85 901.19 378.4 896.02"/>
          </g>
          <g>
            <polygon class="cls-50" points="355.15 927.98 355.15 947.91 363.61 953.03 363.61 933.15 355.15 927.98"/>
            <polygon class="cls-50" points="378.4 942.5 378.4 962.44 386.85 967.56 386.85 947.68 378.4 942.5"/>
          </g>
          <g>
            <polygon class="cls-50" points="282.74 840.5 282.74 860.43 291.2 865.55 291.2 845.67 282.74 840.5"/>
            <polygon class="cls-50" points="305.98 855.02 305.98 874.95 314.44 880.08 314.44 860.19 305.98 855.02"/>
          </g>
          <g>
            <polygon class="cls-50" points="282.74 886.98 282.74 906.91 291.2 912.03 291.2 892.15 282.74 886.98"/>
            <polygon class="cls-50" points="305.98 901.5 305.98 921.44 314.44 926.56 314.44 906.68 305.98 901.5"/>
          </g>
          <g>
            <polygon class="cls-50" points="214.87 802.34 214.87 822.27 223.33 827.39 223.33 807.51 214.87 802.34"/>
            <polygon class="cls-50" points="238.11 816.86 238.11 836.79 246.57 841.92 246.57 822.03 238.11 816.86"/>
          </g>
          <g>
            <polygon class="cls-50" points="214.87 848.82 214.87 868.75 223.33 873.87 223.33 853.99 214.87 848.82"/>
            <polygon class="cls-50" points="238.11 863.35 238.11 883.28 246.57 888.4 246.57 868.52 238.11 863.35"/>
          </g>
        </g>
        <polygon class="cls-107" points="505.85 923.92 505.85 972.09 486.27 961.47 486.41 915.83 505.85 923.92"/>
        <polygon class="cls-50" points="486.27 927.98 486.27 961.47 452.72 980.5 452.85 934.87 486.27 927.98"/>
        <polygon class="cls-57" points="486.13 915.23 435.45 939.5 449.04 952.97 505.85 923.92 486.13 915.23"/>
        <polygon class="cls-54" points="505.85 972.09 486.27 961.47 452.72 980.5 452.72 1002.62 505.85 972.09"/>
      </g>
    </g>
    <g id="RICKSHAW">
      <g>
        <path class="cls-30" d="M180.71,974.37l8.72,4.77c4.9,2.68,12.38,2.97,16.62,.65,4.24-2.32,3.7-6.41-1.19-9.09l-8.72-4.77,5.09-2.78c4.01-2.19,3.5-6.06-1.13-8.59l-38.36-20.98-40.51,22.15,5.67,3.1-3.09,1.69c-3.19,1.74-2.78,4.82,.9,6.83h0c3.68,2.01,9.3,2.23,12.49,.49l3.09-1.69,15.15,8.28c6.89,3.77,14.33,4.21,25.28-.08"/>
        <g>
          <polygon class="cls-32" points="127.09 952.81 112.87 966.27 117.74 970.88 131.95 957.41 127.09 952.81"/>
          <rect class="cls-55" x="112.87" y="947.23" width="6.88" height="19.04"/>
          <path class="cls-91" d="M141.46,893.77l-4.08-.46c-15.13,3.84-33.85,18.51-33.85,18.51v39.94l5.08,2.78,1.69-2.78,8.46,4.63,1.69,4.63,6.77,3.7v3.7l20.32,11.11v-84.44c-2.1-.57-4.14-1.02-6.08-1.32Z"/>
          <path class="cls-90" d="M181.37,912.9l-.97-.86c-7.97-6.91-21.3-13.82-32.86-16.95v84.44l3.38,1.85c11.09-1.99,22.27-5.85,33.84-18.51,1.42-6.3,3.38-16.27,3.38-24.06-1.24-9.14-3.1-17.34-6.77-25.91Z"/>
          <polygon class="cls-32" points="177.29 967.04 184.08 976.17 180.78 978.37 174 969.24 177.29 967.04"/>
          <polygon class="cls-36" points="106.97 959.85 111.48 957.38 111.72 957.26 111.96 957.16 112.22 957.09 112.48 957.03 112.75 956.99 113.02 956.98 113.3 956.98 113.59 957 113.88 957.04 114.17 957.09 114.47 957.17 114.77 957.26 115.07 957.37 115.37 957.49 115.68 957.63 115.99 957.79 116.29 957.97 116.6 958.16 116.9 958.36 117.2 958.58 117.5 958.82 117.8 959.07 118.09 959.33 118.38 959.61 118.67 959.9 118.95 960.2 119.22 960.52 119.49 960.85 119.75 961.19 120 961.54 120.25 961.91 120.48 962.28 120.71 962.67 120.92 963.05 121.12 963.43 121.3 963.82 121.47 964.2 121.62 964.59 121.76 964.97 121.88 965.35 121.99 965.72 122.08 966.1 122.16 966.46 122.23 966.83 122.28 967.18 122.31 967.54 122.33 967.88 122.34 968.22 122.33 968.55 122.31 968.87 122.27 969.18 122.22 969.48 122.16 969.78 122.07 970.06 121.98 970.33 121.87 970.58 121.75 970.83 121.61 971.06 121.45 971.27 121.28 971.48 121.1 971.66 120.9 971.83 120.69 971.99 120.47 972.12 115.95 974.59 115.72 974.71 115.47 974.8 115.22 974.88 114.95 974.94 114.68 974.97 114.41 974.99 114.13 974.99 113.84 974.97 113.55 974.93 113.26 974.88 112.96 974.8 112.66 974.71 112.36 974.6 112.06 974.48 111.75 974.33 111.45 974.18 111.14 974 110.84 973.81 110.53 973.61 110.23 973.39 109.93 973.15 109.63 972.9 109.34 972.64 109.05 972.36 108.77 972.07 108.49 971.77 108.21 971.45 107.95 971.12 107.68 970.78 107.43 970.43 107.19 970.06 106.95 969.69 106.72 969.3 106.51 968.92 106.32 968.53 106.13 968.15 105.97 967.77 105.81 967.38 105.68 967 105.55 966.62 105.44 966.25 105.35 965.87 105.27 965.51 105.21 965.14 105.16 964.78 105.12 964.43 105.1 964.09 105.09 963.75 105.1 963.42 105.12 963.1 105.16 962.79 105.21 962.48 105.28 962.19 105.36 961.91 105.45 961.64 105.56 961.39 105.69 961.14 105.83 960.91 105.98 960.69 106.15 960.49 106.33 960.31 106.53 960.14 106.74 959.98 106.97 959.85"/>
          <polygon class="cls-36" points="115.97 964.75 116.2 965.13 116.41 965.52 116.6 965.9 116.79 966.29 116.95 966.67 117.11 967.05 117.24 967.44 117.37 967.81 117.48 968.19 117.57 968.56 117.65 968.93 117.71 969.29 117.76 969.65 117.8 970 117.82 970.35 117.83 970.69 117.82 971.02 117.8 971.34 117.76 971.65 117.71 971.95 117.64 972.24 117.56 972.52 117.47 972.79 117.36 973.05 117.23 973.29 117.09 973.52 116.94 973.74 116.77 973.94 116.59 974.13 116.39 974.3 116.18 974.45 115.95 974.59 115.72 974.71 115.47 974.8 115.22 974.88 114.95 974.94 114.68 974.97 114.41 974.99 114.13 974.99 113.84 974.97 113.55 974.93 113.26 974.88 112.96 974.8 112.66 974.71 112.36 974.6 112.06 974.48 111.75 974.33 111.45 974.18 111.14 974 110.84 973.81 110.53 973.61 110.23 973.39 109.93 973.15 109.63 972.9 109.34 972.64 109.05 972.36 108.77 972.07 108.49 971.77 108.21 971.45 107.95 971.12 107.68 970.78 107.43 970.43 107.19 970.06 106.95 969.69 106.72 969.3 106.51 968.92 106.32 968.53 106.13 968.15 105.97 967.77 105.81 967.38 105.68 967 105.55 966.62 105.44 966.25 105.35 965.87 105.27 965.51 105.21 965.14 105.16 964.78 105.12 964.43 105.1 964.09 105.09 963.75 105.1 963.42 105.12 963.1 105.16 962.79 105.21 962.48 105.28 962.19 105.36 961.91 105.45 961.64 105.56 961.39 105.69 961.14 105.83 960.91 105.98 960.69 106.15 960.49 106.33 960.31 106.53 960.14 106.74 959.98 106.97 959.85 107.2 959.73 107.45 959.63 107.71 959.56 107.97 959.5 108.24 959.46 108.51 959.44 108.79 959.44 109.08 959.46 109.37 959.5 109.66 959.56 109.96 959.63 110.26 959.73 110.56 959.83 110.86 959.96 111.17 960.1 111.47 960.26 111.78 960.43 112.08 960.62 112.39 960.83 112.69 961.05 112.99 961.29 113.29 961.53 113.58 961.8 113.87 962.08 114.15 962.37 114.43 962.67 114.71 962.99 114.97 963.32 115.24 963.66 115.49 964.01 115.74 964.37 115.97 964.75"/>
          <polygon class="cls-38" points="116.72 968.37 116.81 968.72 116.88 969.07 116.94 969.4 116.99 969.74 117.02 970.06 117.04 970.38 117.05 970.68 117.04 970.98 117.02 971.27 116.99 971.55 116.94 971.82 116.89 972.07 116.82 972.31 116.74 972.54 116.64 972.75 116.54 972.95 116.43 973.14 116.31 973.31 116.18 973.46 116.04 973.6 115.89 973.73 115.73 973.85 115.56 973.95 115.39 974.04 115.2 974.11 115.01 974.17 114.81 974.21 114.6 974.24 114.39 974.25 114.16 974.25 113.93 974.24 113.69 974.2 113.44 974.16 113.18 974.09 112.92 974.01 112.66 973.92 112.39 973.81 112.11 973.68 111.84 973.54 111.56 973.38 111.28 973.2 111 973.01 110.72 972.81 110.44 972.59 110.16 972.36 109.89 972.11 109.62 971.86 109.35 971.59 109.09 971.3 108.83 971 108.58 970.69 108.33 970.36 108.09 970.03 107.85 969.68 107.63 969.33 107.41 968.96 107.21 968.6 107.03 968.23 106.86 967.87 106.7 967.5 106.55 967.14 106.42 966.78 106.31 966.43 106.2 966.06 106.11 965.71 106.04 965.37 105.98 965.03 105.93 964.7 105.9 964.38 105.88 964.06 105.87 963.75 105.88 963.45 105.9 963.16 105.93 962.89 105.98 962.62 106.04 962.37 106.1 962.13 106.18 961.9 106.28 961.69 106.38 961.49 106.49 961.3 106.61 961.13 106.74 960.97 106.88 960.83 107.03 960.7 107.19 960.59 107.36 960.49 107.53 960.4 107.72 960.33 107.91 960.27 108.11 960.23 108.32 960.2 108.53 960.18 108.76 960.18 108.99 960.2 109.23 960.23 109.48 960.28 109.74 960.34 110 960.42 110.26 960.52 110.53 960.63 110.81 960.76 111.08 960.9 111.36 961.06 111.64 961.23 111.92 961.42 112.2 961.63 112.48 961.85 112.76 962.08 113.03 962.33 113.3 962.58 113.57 962.85 113.83 963.14 114.09 963.44 114.34 963.75 114.59 964.07 114.83 964.41 115.07 964.75 115.51 965.47 115.71 965.84 115.89 966.2 116.07 966.57 116.22 966.93 116.37 967.29 116.5 967.65 116.61 968.01 116.72 968.37"/>
          <polygon class="cls-31" points="115.21 968.74 115.29 969.04 115.35 969.34 115.4 969.63 115.44 969.9 115.47 970.17 115.48 970.43 115.49 970.68 115.48 970.92 115.47 971.14 115.44 971.35 115.41 971.54 115.37 971.72 115.32 971.88 115.27 972.02 115.22 972.15 115.16 972.26 115.1 972.36 115.05 972.44 114.99 972.5 114.94 972.55 114.89 972.6 114.84 972.64 114.78 972.67 114.73 972.7 114.67 972.72 114.6 972.74 114.52 972.76 114.44 972.77 114.34 972.78 114.22 972.78 114.09 972.77 113.95 972.75 113.79 972.72 113.62 972.68 113.44 972.62 113.25 972.55 113.04 972.47 112.83 972.37 112.61 972.25 112.39 972.13 112.16 971.98 111.93 971.83 111.69 971.65 111.45 971.47 111.22 971.27 110.98 971.05 110.75 970.84 110.51 970.6 110.28 970.34 110.05 970.08 109.83 969.8 109.61 969.52 109.39 969.22 109.18 968.91 108.98 968.59 108.79 968.26 108.61 967.93 108.44 967.61 108.29 967.28 108.15 966.96 108.02 966.64 107.9 966.33 107.8 966.01 107.71 965.7 107.63 965.39 107.57 965.1 107.52 964.81 107.48 964.53 107.45 964.26 107.44 964 107.43 963.75 107.44 963.52 107.45 963.3 107.48 963.09 107.51 962.89 107.55 962.72 107.6 962.56 107.65 962.41 107.7 962.28 107.76 962.17 107.82 962.08 107.87 962 107.93 961.94 107.98 961.88 108.03 961.84 108.08 961.8 108.14 961.77 108.19 961.74 108.26 961.71 108.32 961.69 108.4 961.68 108.48 961.67 108.58 961.66 108.7 961.66 108.83 961.67 108.97 961.69 109.13 961.72 109.3 961.76 109.48 961.82 109.67 961.89 109.88 961.97 110.09 962.07 110.31 962.18 110.53 962.31 110.76 962.45 110.99 962.61 111.23 962.78 111.47 962.97 111.7 963.17 111.94 963.38 112.17 963.6 112.41 963.84 112.64 964.09 112.87 964.36 113.09 964.63 113.32 964.92 113.53 965.22 113.73 965.52 114.14 966.19 114.31 966.5 114.48 966.83 114.63 967.15 114.77 967.47 114.9 967.79 115.02 968.11 115.12 968.42 115.21 968.74"/>
          <path class="cls-37" d="M115.21,968.74l.08,.3,.06,.29,.05,.29,.04,.28,.03,.27,.02,.26v.25s0,.24,0,.24l-.02,.22-.02,.21-.03,.19-.04,.18h0c-.08,.01-.16,.02-.25,.02-3.65,0-6.61-3.3-6.61-7.38,0-.94,.16-1.84,.45-2.67h.02s.16,.03,.16,.03l.17,.04,.18,.06,.19,.07,.2,.08,.21,.1,.22,.11,.22,.13,.23,.14,.23,.16,.24,.17,.24,.19,.24,.2,.24,.21,.23,.22,.24,.24,.23,.25,.23,.26,.23,.28,.22,.29,.21,.3,.2,.3,.41,.66,.17,.32,.17,.33,.15,.32,.14,.32,.13,.32,.11,.32,.1,.31,.09,.32Z"/>
          <polygon class="cls-32" points="103.53 940.28 103.53 940.92 110.3 944.63 110.3 943.98 103.53 940.28"/>
          <path class="cls-18" d="M150.91,981.38c11.09-1.99,22.27-5.85,33.84-18.51,.25-1.13,.53-2.37,.8-3.7l-.4,.12c-1.74,.51-3.69,.71-5.45,.17-.49-.15-1.28-.49-1.66-.84l-.79-.73-.46,.95c-.14,.28-.29,.56-.45,.83-.42,.73-.87,1.44-1.35,2.13-1.53,2.21-3.35,4.28-5.41,6.06-2.62,2.26-5.65,4.05-9.04,5.05-4.19,1.24-8.5,1.15-12.72,.09l-20.57-11.25-.32,.2-.49,.12v2.23l.78,.43v3.7l23.69,12.96Z"/>
          <path class="cls-36" d="M150.91,981.38c11.09-1.99,22.27-5.85,33.84-18.51,.2-.89,.41-1.86,.63-2.88-5.31,1.55-7.89-.84-7.89-.84,0,0-9.64,19.7-29.97,14.54v5.85h0s3.38,1.85,3.38,1.85Z"/>
          <polygon class="cls-45" points="107.93 954.18 108.61 954.54 110.3 951.77 118.76 956.39 120.45 961.02 121.48 961.59 119.4 955.89 110.01 950.76 107.93 954.18"/>
          <polygon class="cls-41" points="126.44 964.3 127.22 964.72 127.22 950.64 126.44 950.23 126.44 964.3"/>
          <path class="cls-16" d="M127.22,952.31v-13.5l14.46-7.91c1.78,1.24,3.42,2.51,4.87,3.77l.97,.86v6.97s-19.11,10.45-19.11,10.45l-1.19-.65Z"/>
          <path class="cls-22" d="M142.32,931.35c1.53,1.1,2.96,2.21,4.24,3.33l.97,.86v6.97s-18.82,10.29-18.82,10.29v-12.91c0-.61,.39-1.32,.87-1.58l12.73-6.96Z"/>
          <path class="cls-35" d="M110.3,940.66v-14.81l10.6-5.79c2.11,.79,4.23,1.68,6.33,2.64,1.14,.52,2.27,1.07,3.38,1.63v5.22l-20.31,11.1Z"/>
          <path class="cls-36" d="M122.93,920.86c1.44,.58,2.87,1.2,4.29,1.85,1.14,.52,2.27,1.07,3.38,1.63v5.22l-18.7,10.22v-11.18c0-.95,.61-2.05,1.36-2.46l9.66-5.28Z"/>
          <path class="cls-24" d="M137.37,933.26l-6.77-3.7v-5.22c3.98,2.01,7.76,4.25,11.08,6.57l-4.31,2.36Z"/>
          <polygon class="cls-35" points="127.81 952.64 110.3 943.06 110.3 940.66 126.44 931.84 128 930.98 130.61 929.56 137.37 933.26 128 938.39 127.81 952.64"/>
          <polygon class="cls-34" points="135.98 934.03 128 938.39 127.84 950.76 111.07 941.59 130.44 931 135.98 934.03"/>
          <polygon class="cls-32" points="128 952.74 128 918.57 126.44 918.57 126.44 951.89 128 952.74"/>
          <path class="cls-26" d="M181.37,912.9c-15.13,3.84-33.85,18.51-33.85,18.51v4.13l-.97-.86c-1.46-1.27-3.1-2.53-4.87-3.77-3.31-2.32-7.1-4.56-11.08-6.57-1.12-.56-2.25-1.11-3.38-1.63-2.09-.96-4.21-1.85-6.33-2.64-3.63-1.37-7.23-2.45-10.6-3.16-.91-.19-1.81-.35-2.68-.49l-4.08-.46v-4.13s18.71-14.67,33.84-18.51l4.08,.46c12.61,1.92,29.53,10.1,38.94,18.26l.97,.86Z"/>
          <path class="cls-21" d="M163.12,901.04c.1,.05,.21,.1,.31,.15h0s0,0,0,0h.02c.21,.11,.42,.21,.62,.32h.01s.01,.01,.01,.01c.15,.07,.29,.15,.44,.22-15.13,3.84-33.84,18.51-33.84,18.51-.47-.24-.95-.47-1.42-.71,0,0,18.71-14.67,33.84-18.51"/>
          <path class="cls-32" d="M127.22,918.57c7.38,3.39,14.39,7.68,19.34,11.97l.97,.86v4.13l-.97-.86c-1.46-1.27-3.1-2.53-4.87-3.77-3.31-2.32-7.1-4.56-11.08-6.57-1.12-.56-2.25-1.11-3.38-1.63-2.09-.96-4.21-1.85-6.33-2.64-3.63-1.37-7.23-2.45-10.6-3.16-.91-.19-1.81-.35-2.68-.49l-4.08-.46v-4.13l4.08,.46c5.99,.91,12.94,3.23,19.61,6.29"/>
          <path class="cls-23" d="M187.78,936.54c.12,.82,.23,1.64,.33,2.47-.02,1.47-.1,3.02-.24,4.6-3.5,4.43-21.47,15.32-33.82,15.12-.07,0-.15,0-.22,0-2.43-.06-4.65-.55-6.51-1.59l.07-7.4,.07-7.4,.07-6.97,.04-4.13s18.85-14.49,34.02-18.19c3.26,7.82,5.03,15.33,6.19,23.5"/>
          <path class="cls-32" d="M182.28,915.12c2.96,5.61,4.99,15.46,5.5,21.23-.92,1.28-6.69,5.84-7.76,6.56-3.65,2.45-7.74,4.62-11.84,6.33-4.21,1.75-9.5,3.42-14.14,3.33-1.27-.03-2.58-.19-3.79-.59v-12c0-6.85,1.83-8.75,5.43-11.21,4.69-3.2,9.62-6.23,14.72-8.79,2.95-1.48,8.65-3.84,11.87-4.86"/>
          <path class="cls-19" d="M182.59,915.73c2.67,5.44,4.52,14.22,5.12,19.85-.42,.35-.97,.8-1.03,.87-.27,.27-.55,.53-.84,.79-.74,.67-1.51,1.32-2.28,1.95-.81,.66-1.62,1.32-2.45,1.96-.5,.39-1.02,.8-1.54,1.15-3.64,2.44-7.61,4.56-11.7,6.25-4.12,1.71-9.28,3.36-13.81,3.27-1.01-.02-2.05-.13-3.02-.4v-11.46c0-1.67,.1-3.47,.55-5.09,.31-1.12,.79-2.11,1.57-3.02,.83-.98,1.92-1.77,2.99-2.5,4.67-3.19,9.54-6.18,14.63-8.73,1.89-.95,3.88-1.8,5.84-2.6,1.22-.5,2.8-1.14,4.24-1.69,.43-.16,1.13-.42,1.74-.62"/>
          <path class="cls-42" d="M185.31,923.21c.48,1.73,.91,3.51,1.26,5.24l-9.37,15.38c-2.13,1.3-4.35,2.48-6.62,3.54l14.73-24.16Z"/>
          <path class="cls-42" d="M183.89,918.77c.29,.78,.57,1.59,.83,2.43l-16.62,27.26-.22,.09c-.89,.37-1.83,.74-2.81,1.09l18.82-30.87Z"/>
          <path class="cls-42" d="M153.36,951.8c-.78-.05-1.57-.16-2.32-.37v-3.14l15.49-25.41c1.4-.78,2.82-1.54,4.25-2.26,.73-.37,1.47-.72,2.23-1.06l-19.64,32.22Z"/>
          <path class="cls-42" d="M151.04,941.8v-1.83c0-.77,.02-1.58,.09-2.38l5.01-8.23h0c1.36-.94,2.74-1.85,4.14-2.74l-9.25,15.17Z"/>
          <path class="cls-32" d="M162.85,951.15c-.25,.07-.5,.15-.75,.22l-6.4-22.62c.22-.15,.45-.31,.68-.46l6.47,22.86Z"/>
          <path class="cls-44" d="M185.1,938.89c-.22,.19-.45,.38-.68,.57l-4.47-23.53c.25-.09,.5-.18,.74-.27l4.41,23.23Z"/>
          <path class="cls-25" d="M150.91,981.38c1.42-6.3,3.38-16.27,3.38-24.06-1.24-9.14-3.1-17.34-6.77-25.91v48.12l3.38,1.85Z"/>
          <polygon class="cls-32" points="147.53 963.42 140.11 959.36 147.53 955.31 147.53 957.32 147.53 963.42"/>
          <polygon class="cls-35" points="140.11 959.36 128.42 952.97 147.53 942.51 147.53 955.31 140.11 959.36"/>
          <polygon class="cls-34" points="130.14 952.02 147.53 942.51 147.53 955.31 141.84 958.42 130.14 952.02"/>
          <polygon class="cls-33" points="140.11 959.36 138.43 958.44 147.53 953.46 147.53 955.31 140.11 959.36"/>
          <polygon class="cls-29" points="163.78 967.6 162.07 966.7 161.94 966.62 161.82 966.54 161.71 966.44 161.61 966.34 161.52 966.23 161.43 966.11 161.36 965.98 161.29 965.84 161.23 965.7 161.17 965.55 161.13 965.39 161.09 965.23 161.06 965.06 161.04 964.89 161.03 964.71 161.02 964.53 161.03 964.34 161.04 964.15 161.06 963.95 161.09 963.75 161.12 963.55 161.17 963.34 161.22 963.14 161.28 962.93 161.35 962.72 161.43 962.5 161.51 962.29 161.6 962.08 161.71 961.86 161.82 961.65 161.93 961.43 162.06 961.22 162.19 961.01 162.33 960.81 162.47 960.61 162.61 960.42 162.76 960.24 162.92 960.06 163.07 959.89 163.23 959.73 163.39 959.58 163.55 959.43 163.72 959.29 163.89 959.16 164.05 959.04 164.22 958.92 164.39 958.82 164.56 958.72 164.73 958.63 164.9 958.55 165.07 958.48 165.24 958.42 165.41 958.37 165.57 958.33 165.74 958.3 165.9 958.28 166.06 958.27 166.21 958.27 166.37 958.28 166.52 958.3 166.66 958.33 166.8 958.37 166.94 958.42 167.07 958.49 168.79 959.39 168.65 959.33 168.52 959.27 168.38 959.23 168.23 959.2 168.08 959.18 167.93 959.17 167.77 959.17 167.61 959.18 167.45 959.2 167.29 959.23 167.12 959.27 166.95 959.32 166.79 959.39 166.62 959.46 166.45 959.53 166.28 959.62 166.11 959.72 165.94 959.83 165.77 959.94 165.6 960.06 165.43 960.19 165.27 960.33 165.1 960.48 164.94 960.63 164.78 960.79 164.63 960.96 164.48 961.14 164.33 961.32 164.18 961.51 164.04 961.71 163.9 961.91 163.77 962.12 163.65 962.34 163.53 962.55 163.42 962.76 163.32 962.98 163.23 963.19 163.14 963.41 163.06 963.62 163 963.83 162.93 964.04 162.88 964.25 162.84 964.45 162.8 964.65 162.77 964.85 162.75 965.05 162.74 965.24 162.74 965.43 162.74 965.61 162.76 965.79 162.78 965.96 162.8 966.13 162.84 966.3 162.89 966.45 162.94 966.6 163 966.74 163.07 966.88 163.15 967.01 163.23 967.13 163.33 967.24 163.43 967.35 163.54 967.44 163.66 967.53 163.78 967.6"/>
          <polygon class="cls-39" points="163.77 962.12 163.9 961.91 164.04 961.71 164.18 961.51 164.33 961.32 164.48 961.14 164.63 960.96 164.78 960.79 164.94 960.63 165.1 960.48 165.27 960.33 165.43 960.19 165.6 960.06 165.77 959.94 165.94 959.83 166.11 959.72 166.28 959.62 166.45 959.53 166.62 959.46 166.79 959.39 166.95 959.32 167.12 959.27 167.29 959.23 167.45 959.2 167.61 959.18 167.77 959.17 167.93 959.17 168.08 959.18 168.23 959.2 168.38 959.23 168.52 959.27 168.65 959.33 168.79 959.39 168.91 959.47 169.03 959.55 169.14 959.65 169.24 959.75 169.34 959.86 169.42 959.99 169.5 960.11 169.57 960.25 169.63 960.39 169.68 960.54 169.73 960.7 169.76 960.86 169.79 961.03 169.81 961.2 169.83 961.38 169.83 961.57 169.83 961.75 169.82 961.95 169.8 962.14 169.77 962.34 169.73 962.54 169.69 962.75 169.63 962.96 169.57 963.17 169.51 963.38 169.43 963.59 169.34 963.8 169.25 964.02 169.15 964.23 169.04 964.44 168.92 964.66 168.8 964.87 168.67 965.08 168.53 965.28 168.39 965.48 168.24 965.67 168.09 965.85 167.94 966.03 167.78 966.2 167.63 966.36 167.46 966.52 167.3 966.66 167.14 966.8 166.97 966.93 166.8 967.05 166.63 967.17 166.46 967.27 166.29 967.37 166.12 967.46 165.95 967.54 165.78 967.61 165.61 967.67 165.45 967.72 165.28 967.76 165.12 967.79 164.96 967.81 164.8 967.83 164.64 967.83 164.49 967.82 164.34 967.8 164.19 967.76 164.05 967.72 163.91 967.67 163.78 967.6 163.66 967.53 163.54 967.44 163.43 967.35 163.33 967.24 163.23 967.13 163.15 967.01 163.07 966.88 163 966.74 162.94 966.6 162.89 966.45 162.84 966.3 162.8 966.13 162.78 965.96 162.76 965.79 162.74 965.61 162.74 965.43 162.74 965.24 162.75 965.05 162.77 964.85 162.8 964.65 162.84 964.45 162.88 964.25 162.93 964.04 163 963.83 163.06 963.62 163.14 963.41 163.23 963.19 163.32 962.98 163.42 962.76 163.53 962.55 163.65 962.34 163.77 962.12"/>
          <polygon class="cls-32" points="165.65 961.27 165.79 961.14 165.93 961.01 166.07 960.89 166.21 960.78 166.35 960.68 166.49 960.59 166.63 960.5 166.76 960.42 166.9 960.35 167.03 960.29 167.15 960.24 167.28 960.19 167.4 960.16 167.51 960.13 167.62 960.11 167.72 960.1 167.81 960.09 167.9 960.09 167.98 960.09 168.05 960.11 168.12 960.12 168.18 960.14 168.24 960.16 168.3 960.19 168.35 960.22 168.41 960.26 168.46 960.3 168.5 960.35 168.55 960.41 168.59 960.47 168.64 960.54 168.68 960.62 168.72 960.71 168.75 960.81 168.78 960.92 168.81 961.03 168.83 961.15 168.84 961.29 168.85 961.42 168.86 961.57 168.85 961.72 168.84 961.87 168.83 962.04 168.8 962.2 168.77 962.37 168.74 962.55 168.69 962.73 168.64 962.89 168.58 963.09 168.52 963.26 168.44 963.45 168.36 963.64 168.27 963.83 168.18 964.02 168.07 964.21 167.96 964.4 167.84 964.59 167.72 964.77 167.6 964.94 167.47 965.11 167.34 965.27 167.21 965.42 167.07 965.57 166.92 965.72 166.78 965.86 166.64 965.98 166.5 966.1 166.36 966.21 166.22 966.31 166.08 966.41 165.94 966.49 165.81 966.57 165.67 966.64 165.54 966.7 165.41 966.76 165.29 966.8 165.17 966.84 165.06 966.86 164.95 966.88 164.85 966.9 164.76 966.9 164.67 966.9 164.59 966.9 164.52 966.89 164.45 966.87 164.39 966.86 164.33 966.83 164.27 966.8 164.21 966.77 164.16 966.73 164.11 966.69 164.07 966.64 164.02 966.59 163.97 966.52 163.93 966.45 163.89 966.37 163.85 966.28 163.82 966.18 163.79 966.08 163.76 965.96 163.74 965.84 163.72 965.71 163.72 965.57 163.71 965.43 163.71 965.28 163.72 965.12 163.74 964.96 163.76 964.79 163.79 964.62 163.83 964.45 163.88 964.27 163.93 964.1 163.99 963.9 164.05 963.73 164.13 963.54 164.21 963.35 164.3 963.17 164.39 962.98 164.5 962.79 164.72 962.41 164.85 962.23 164.97 962.05 165.1 961.89 165.23 961.72 165.36 961.57 165.5 961.42 165.65 961.27"/>
          <path class="cls-31" d="M165.65,961.27l.14-.13,.14-.13,.14-.12,.14-.11,.14-.1,.14-.09,.14-.09,.14-.08,.13-.07,.13-.06,.13-.05,.12-.04,.12-.04,.11-.03,.11-.02h.05c.21,.5,.32,1.05,.32,1.63,0,2.3-1.8,4.21-4.14,4.53l-.03-.08-.03-.11-.03-.12-.02-.12-.02-.13v-.14s-.01-.14-.01-.14v-.15s.01-.16,.01-.16l.02-.16,.02-.17,.03-.17,.04-.17,.05-.18,.05-.17,.06-.2,.06-.17,.07-.19,.08-.19,.09-.19,.1-.19,.1-.19,.23-.38,.12-.18,.12-.17,.13-.17,.13-.16,.13-.15,.14-.15,.15-.15Z"/>
          <polygon class="cls-28" points="184.71 956.16 182.99 955.26 182.87 955.18 182.75 955.1 182.64 955 182.54 954.9 182.44 954.79 182.36 954.67 182.28 954.54 182.21 954.4 182.15 954.26 182.1 954.11 182.05 953.95 182.02 953.79 181.99 953.62 181.97 953.45 181.95 953.27 181.95 953.08 181.95 952.9 181.96 952.7 181.98 952.51 182.01 952.31 182.05 952.11 182.09 951.9 182.15 951.69 182.21 951.49 182.27 951.27 182.35 951.06 182.44 950.85 182.53 950.63 182.63 950.42 182.74 950.21 182.86 949.99 182.98 949.78 183.11 949.57 183.25 949.37 183.39 949.17 183.54 948.98 183.69 948.8 183.84 948.62 184 948.45 184.15 948.29 184.32 948.13 184.48 947.99 184.64 947.85 184.81 947.72 184.98 947.6 185.15 947.48 185.32 947.38 185.49 947.28 185.66 947.19 185.83 947.11 186 947.04 186.17 946.98 186.33 946.93 186.5 946.89 186.66 946.86 186.82 946.84 186.98 946.82 187.14 946.82 187.29 946.83 187.44 946.85 187.59 946.89 187.73 946.93 187.87 946.98 188 947.05 189.71 947.95 189.58 947.88 189.44 947.83 189.3 947.79 189.15 947.76 189 947.74 188.85 947.73 188.7 947.73 188.54 947.74 188.38 947.76 188.21 947.79 188.05 947.83 187.88 947.88 187.71 947.94 187.54 948.01 187.37 948.09 187.2 948.18 187.03 948.28 186.86 948.38 186.69 948.5 186.52 948.62 186.36 948.75 186.19 948.89 186.03 949.04 185.87 949.19 185.71 949.35 185.55 949.52 185.4 949.7 185.25 949.88 185.11 950.07 184.97 950.27 184.83 950.47 184.7 950.68 184.57 950.89 184.45 951.11 184.34 951.32 184.24 951.54 184.15 951.75 184.07 951.96 183.99 952.18 183.92 952.39 183.86 952.6 183.81 952.8 183.76 953.01 183.73 953.21 183.7 953.41 183.68 953.61 183.67 953.8 183.66 953.99 183.67 954.17 183.68 954.35 183.7 954.52 183.73 954.69 183.77 954.85 183.81 955.01 183.86 955.16 183.93 955.3 183.99 955.44 184.07 955.57 184.16 955.69 184.25 955.8 184.35 955.9 184.46 956 184.58 956.08 184.71 956.16"/>
          <polygon class="cls-39" points="184.7 950.68 184.83 950.47 184.97 950.27 185.11 950.07 185.25 949.88 185.4 949.7 185.55 949.52 185.71 949.35 185.87 949.19 186.03 949.04 186.19 948.89 186.36 948.75 186.52 948.62 186.69 948.5 186.86 948.38 187.03 948.28 187.2 948.18 187.37 948.09 187.54 948.01 187.71 947.94 187.88 947.88 188.05 947.83 188.21 947.79 188.38 947.76 188.54 947.74 188.7 947.73 188.85 947.73 189 947.74 189.15 947.76 189.3 947.79 189.44 947.83 189.58 947.88 189.71 947.95 189.84 948.03 189.96 948.11 190.07 948.21 190.17 948.31 190.26 948.42 190.35 948.54 190.42 948.67 190.49 948.81 190.55 948.95 190.61 949.1 190.65 949.26 190.69 949.42 190.72 949.59 190.74 949.76 190.75 949.94 190.76 950.12 190.75 950.31 190.74 950.5 190.72 950.7 190.69 950.9 190.66 951.1 190.61 951.31 190.56 951.51 190.5 951.72 190.43 951.93 190.35 952.15 190.27 952.36 190.18 952.57 190.07 952.79 189.96 953 189.85 953.22 189.72 953.43 189.59 953.64 189.45 953.84 189.31 954.04 189.17 954.23 189.02 954.41 188.86 954.59 188.71 954.76 188.55 954.92 188.39 955.07 188.23 955.22 188.06 955.36 187.89 955.49 187.73 955.61 187.56 955.73 187.39 955.83 187.22 955.93 187.05 956.02 186.88 956.1 186.71 956.17 186.54 956.23 186.37 956.28 186.21 956.32 186.04 956.35 185.88 956.37 185.72 956.38 185.57 956.38 185.41 956.37 185.26 956.35 185.12 956.32 184.98 956.28 184.84 956.23 184.71 956.16 184.58 956.08 184.46 956 184.35 955.9 184.25 955.8 184.16 955.69 184.07 955.57 183.99 955.44 183.93 955.3 183.86 955.16 183.81 955.01 183.77 954.85 183.73 954.69 183.7 954.52 183.68 954.35 183.67 954.17 183.66 953.99 183.67 953.8 183.68 953.61 183.7 953.41 183.73 953.21 183.76 953.01 183.81 952.8 183.86 952.6 183.92 952.39 183.99 952.18 184.07 951.96 184.15 951.75 184.24 951.54 184.34 951.32 184.45 951.11 184.57 950.89 184.7 950.68"/>
          <polygon class="cls-32" points="186.57 949.83 186.71 949.7 186.85 949.57 186.99 949.45 187.13 949.34 187.27 949.24 187.41 949.14 187.55 949.06 187.69 948.98 187.82 948.91 187.95 948.85 188.08 948.8 188.2 948.75 188.32 948.72 188.43 948.69 188.54 948.67 188.64 948.65 188.73 948.65 188.82 948.65 188.9 948.65 188.98 948.66 189.04 948.68 189.11 948.7 189.17 948.72 189.22 948.75 189.28 948.78 189.33 948.82 189.38 948.86 189.43 948.91 189.47 948.97 189.52 949.03 189.56 949.1 189.6 949.18 189.64 949.27 189.68 949.37 189.71 949.47 189.73 949.59 189.75 949.71 189.77 949.84 189.78 949.98 189.78 950.13 189.78 950.28 189.77 950.43 189.75 950.59 189.73 950.76 189.7 950.93 189.66 951.11 189.62 951.29 189.57 951.45 189.5 951.65 189.44 951.82 189.37 952.01 189.29 952.2 189.2 952.39 189.1 952.58 189 952.77 188.89 952.96 188.77 953.14 188.65 953.32 188.52 953.5 188.4 953.67 188.26 953.83 188.13 953.98 188 954.13 187.85 954.28 187.71 954.41 187.57 954.54 187.43 954.66 187.29 954.77 187.15 954.87 187.01 954.97 186.87 955.05 186.73 955.13 186.6 955.2 186.47 955.26 186.34 955.31 186.22 955.36 186.1 955.39 185.99 955.42 185.88 955.44 185.78 955.46 185.68 955.46 185.6 955.46 185.52 955.46 185.44 955.45 185.37 955.43 185.31 955.41 185.25 955.39 185.19 955.36 185.14 955.33 185.09 955.29 185.04 955.25 184.99 955.2 184.94 955.14 184.9 955.08 184.86 955.01 184.82 954.93 184.78 954.84 184.74 954.74 184.71 954.64 184.69 954.52 184.66 954.4 184.65 954.27 184.64 954.13 184.64 953.98 184.64 953.83 184.65 953.68 184.67 953.52 184.69 953.35 184.72 953.18 184.76 953 184.8 952.82 184.85 952.66 184.91 952.46 184.98 952.29 185.05 952.1 185.13 951.91 185.22 951.72 185.32 951.53 185.42 951.34 185.65 950.97 185.77 950.79 185.89 950.61 186.02 950.44 186.15 950.28 186.29 950.13 186.42 949.98 186.57 949.83"/>
          <path class="cls-31" d="M186.57,949.83l.14-.13,.14-.13,.14-.12,.14-.11,.14-.1,.14-.09,.14-.09,.14-.08,.13-.07,.13-.06,.13-.05,.12-.04,.12-.04,.11-.03,.11-.02h.05c.21,.5,.32,1.05,.32,1.63,0,2.3-1.8,4.21-4.14,4.53l-.03-.08-.03-.11-.03-.12-.02-.12-.02-.13v-.14s-.01-.14-.01-.14v-.15s.01-.16,.01-.16l.02-.16,.02-.17,.03-.17,.04-.17,.05-.18,.05-.17,.06-.2,.06-.17,.07-.19,.08-.19,.09-.19,.1-.19,.1-.19,.23-.38,.12-.18,.12-.17,.13-.17,.13-.16,.13-.15,.14-.15,.15-.15Z"/>
          <path class="cls-32" d="M176.76,944.74l-2.1,1.15v-.99c0-.55,.35-1.19,.79-1.43l.53-.29c.43-.24,.79,.02,.79,.56v.99Z"/>
          <path class="cls-32" d="M176.06,944.37c-3.6-1.83-10.49-3.6-19.7-5l19.7,5Z"/>
          <polygon class="cls-55" points="156.16 939.74 175.85 944.74 175.91 944.52 170.63 943.18 170.75 942.77 170.52 942.71 170.4 943.12 166.98 942.25 167.08 941.88 166.86 941.83 166.75 942.2 163.79 941.45 164 941.1 163.8 940.99 163.56 941.39 156.22 939.52 156.16 939.74"/>
          <path class="cls-32" d="M103.53,939.36v-23.4l4.08,.46c.88,.13,1.77,.3,2.68,.49v26.16l-6.77-3.7Z"/>
          <path class="cls-20" d="M110.3,925.86v-8.96c3.37,.71,6.97,1.79,10.6,3.16l-10.6,5.79Z"/>
          <polygon class="cls-33" points="122.42 949.69 118.21 947.38 126.44 942.88 126.44 947.49 122.42 949.69"/>
          <polygon class="cls-32" points="126.44 951.89 122.42 949.69 126.44 947.49 126.44 951.89"/>
          <path class="cls-32" d="M126.82,953.7h0c-.3-.16-.54-.12-.54,.09v.23l-.88-.48v.3l-.6-.33-.54-.1v.43l.54,.49,.6,.33v.3l.88,.48v.27c0,.21,.24,.52,.54,.68,.3,.16,.54,.12,.54-.09v-.27l.88,.48v-.3l.6,.33,.54,.1v-.43l-.54-.49-.6-.33v-.3l-.88-.48v-.23c0-.21-.24-.52-.54-.68"/>
          <path class="cls-32" d="M126.82,959.85h0c-.3-.16-.54-.12-.54,.09v.23l-.88-.48v.3l-.6-.33-.54-.1v.43l.54,.49,.6,.33v.3l.88,.48v.27c0,.21,.24,.52,.54,.68,.3,.16,.54,.12,.54-.09v-.27l.88,.48v-.3l.6,.33,.54,.1v-.43l-.54-.49-.6-.33v-.3l-.88-.48v-.23c0-.21-.24-.52-.54-.68"/>
          <polygon class="cls-40" points="107.13 955.35 107.87 954.14 108.82 952.58 110.3 951.77 109.56 952.98 108.61 954.54 107.13 955.35"/>
          <polygon class="cls-39" points="117.28 957.2 109.56 952.98 108.82 952.58 110.3 951.77 118.76 956.39 120.45 961.02 118.97 961.83 118.23 959.81 117.28 957.2"/>
          <polygon class="cls-36" points="175.08 972.07 179.59 969.6 179.83 969.48 180.07 969.39 180.33 969.31 180.59 969.25 180.86 969.22 181.13 969.2 181.41 969.2 181.7 969.22 181.99 969.26 182.28 969.31 182.58 969.39 182.88 969.48 183.18 969.59 183.49 969.71 183.79 969.86 184.1 970.02 184.4 970.19 184.71 970.38 185.01 970.58 185.31 970.81 185.61 971.04 185.91 971.29 186.2 971.55 186.49 971.83 186.78 972.12 187.06 972.42 187.33 972.74 187.6 973.07 187.86 973.41 188.11 973.76 188.36 974.13 188.6 974.51 188.82 974.89 189.03 975.27 189.23 975.66 189.41 976.04 189.58 976.43 189.73 976.81 189.87 977.19 189.99 977.57 190.1 977.94 190.19 978.32 190.27 978.69 190.34 979.05 190.39 979.41 190.42 979.76 190.45 980.1 190.45 980.44 190.44 980.77 190.42 981.09 190.38 981.4 190.33 981.71 190.27 982 190.19 982.28 190.09 982.55 189.98 982.81 189.86 983.05 189.72 983.28 189.56 983.5 189.4 983.7 189.21 983.88 189.02 984.05 188.8 984.21 188.58 984.34 184.07 986.81 183.83 986.93 183.58 987.03 183.33 987.1 183.06 987.16 182.8 987.2 182.52 987.21 182.24 987.21 181.96 987.19 181.67 987.16 181.37 987.1 181.08 987.02 180.78 986.93 180.47 986.82 180.17 986.7 179.86 986.56 179.56 986.4 179.25 986.22 178.95 986.03 178.64 985.83 178.34 985.61 178.04 985.37 177.75 985.12 177.45 984.86 177.16 984.58 176.88 984.29 176.6 983.99 176.32 983.67 176.06 983.34 175.8 983 175.54 982.65 175.3 982.28 175.06 981.91 174.83 981.52 174.62 981.14 174.43 980.76 174.25 980.37 174.08 979.99 173.93 979.6 173.79 979.22 173.66 978.84 173.56 978.47 173.46 978.1 173.38 977.73 173.32 977.36 173.27 977.01 173.23 976.65 173.21 976.31 173.2 975.97 173.21 975.64 173.23 975.32 173.27 975.01 173.32 974.71 173.39 974.41 173.47 974.13 173.56 973.86 173.67 973.61 173.8 973.36 173.94 973.13 174.09 972.92 174.26 972.72 174.44 972.53 174.64 972.36 174.85 972.2 175.08 972.07"/>
          <polygon class="cls-36" points="184.08 976.97 184.31 977.36 184.52 977.74 184.72 978.12 184.9 978.51 185.06 978.89 185.22 979.28 185.36 979.66 185.48 980.04 185.59 980.41 185.68 980.78 185.76 981.15 185.83 981.52 185.88 981.87 185.91 982.23 185.93 982.57 185.94 982.91 185.93 983.24 185.91 983.56 185.87 983.87 185.82 984.17 185.75 984.47 185.67 984.75 185.58 985.02 185.47 985.27 185.34 985.52 185.21 985.75 185.05 985.96 184.88 986.17 184.7 986.35 184.5 986.52 184.29 986.68 184.07 986.81 183.83 986.93 183.58 987.03 183.33 987.1 183.06 987.16 182.8 987.2 182.52 987.21 182.24 987.21 181.96 987.19 181.67 987.16 181.37 987.1 181.08 987.02 180.78 986.93 180.47 986.82 180.17 986.7 179.86 986.56 179.56 986.4 179.25 986.22 178.95 986.03 178.64 985.83 178.34 985.61 178.04 985.37 177.75 985.12 177.45 984.86 177.16 984.58 176.88 984.29 176.6 983.99 176.32 983.67 176.06 983.34 175.8 983 175.54 982.65 175.3 982.28 175.06 981.91 174.83 981.52 174.62 981.14 174.43 980.76 174.25 980.37 174.08 979.99 173.93 979.6 173.79 979.22 173.66 978.84 173.56 978.47 173.46 978.1 173.38 977.73 173.32 977.36 173.27 977.01 173.23 976.65 173.21 976.31 173.2 975.97 173.21 975.64 173.23 975.32 173.27 975.01 173.32 974.71 173.39 974.41 173.47 974.13 173.56 973.86 173.67 973.61 173.8 973.36 173.94 973.13 174.09 972.92 174.26 972.72 174.44 972.53 174.64 972.36 174.85 972.2 175.08 972.07 175.32 971.95 175.56 971.85 175.82 971.78 176.08 971.72 176.35 971.68 176.62 971.67 176.9 971.67 177.19 971.69 177.48 971.73 177.77 971.78 178.07 971.86 178.37 971.95 178.67 972.06 178.97 972.18 179.28 972.32 179.58 972.48 179.89 972.66 180.19 972.85 180.5 973.05 180.8 973.27 181.1 973.51 181.4 973.76 181.69 974.02 181.98 974.3 182.26 974.59 182.54 974.89 182.82 975.21 183.09 975.54 183.35 975.88 183.6 976.23 183.85 976.6 184.08 976.97"/>
          <polygon class="cls-38" points="184.83 980.6 184.92 980.94 184.99 981.29 185.05 981.63 185.1 981.96 185.13 982.28 185.15 982.6 185.16 982.91 185.15 983.21 185.13 983.49 185.1 983.77 185.05 984.04 185 984.29 184.93 984.53 184.85 984.76 184.76 984.97 184.65 985.17 184.54 985.36 184.42 985.53 184.29 985.68 184.15 985.83 184 985.96 183.84 986.07 183.68 986.17 183.5 986.26 183.31 986.33 183.12 986.39 182.92 986.43 182.71 986.46 182.5 986.48 182.27 986.47 182.04 986.46 181.8 986.43 181.55 986.38 181.29 986.32 181.03 986.24 180.77 986.14 180.5 986.03 180.22 985.9 179.95 985.76 179.67 985.6 179.39 985.42 179.11 985.23 178.83 985.03 178.55 984.81 178.27 984.58 178 984.33 177.73 984.08 177.47 983.81 177.2 983.52 176.94 983.22 176.69 982.91 176.44 982.59 176.2 982.25 175.97 981.91 175.74 981.55 175.53 981.18 175.33 980.82 175.14 980.45 174.97 980.09 174.81 979.73 174.66 979.37 174.53 979.01 174.42 978.65 174.31 978.28 174.22 977.94 174.15 977.59 174.09 977.25 174.04 976.92 174.01 976.6 173.99 976.28 173.98 975.97 173.99 975.68 174.01 975.39 174.04 975.11 174.09 974.84 174.15 974.59 174.22 974.35 174.3 974.12 174.39 973.91 174.49 973.71 174.6 973.52 174.72 973.35 174.85 973.2 174.99 973.05 175.14 972.93 175.3 972.81 175.47 972.71 175.65 972.62 175.83 972.55 176.02 972.49 176.22 972.45 176.43 972.42 176.65 972.4 176.87 972.41 177.1 972.42 177.35 972.45 177.59 972.5 177.85 972.56 178.11 972.64 178.38 972.74 178.65 972.85 178.92 972.98 179.2 973.12 179.47 973.28 179.75 973.46 180.03 973.65 180.31 973.85 180.59 974.07 180.87 974.3 181.15 974.55 181.41 974.8 181.68 975.07 181.94 975.36 182.2 975.66 182.45 975.97 182.7 976.29 182.94 976.63 183.18 976.98 183.62 977.7 183.82 978.06 184 978.43 184.18 978.79 184.34 979.15 184.48 979.52 184.61 979.87 184.73 980.23 184.83 980.6"/>
          <polygon class="cls-42" points="183.32 980.96 183.4 981.27 183.46 981.56 183.51 981.85 183.55 982.13 183.58 982.4 183.6 982.66 183.6 982.9 183.59 983.14 183.58 983.36 183.55 983.57 183.52 983.76 183.48 983.94 183.43 984.1 183.38 984.25 183.33 984.37 183.27 984.48 183.22 984.58 183.16 984.66 183.11 984.72 183.05 984.78 183 984.82 182.95 984.86 182.89 984.89 182.84 984.92 182.78 984.94 182.71 984.96 182.63 984.98 182.55 984.99 182.45 985 182.33 985 182.2 984.99 182.06 984.97 181.9 984.94 181.73 984.9 181.55 984.84 181.36 984.77 181.15 984.69 180.94 984.59 180.72 984.48 180.5 984.35 180.27 984.21 180.04 984.05 179.8 983.88 179.57 983.69 179.33 983.49 179.09 983.28 178.86 983.06 178.62 982.82 178.39 982.57 178.16 982.3 177.94 982.02 177.72 981.74 177.5 981.44 177.29 981.13 177.09 980.81 176.9 980.48 176.72 980.16 176.55 979.83 176.4 979.51 176.26 979.18 176.13 978.86 176.02 978.55 175.91 978.24 175.82 977.92 175.75 977.62 175.68 977.32 175.63 977.03 175.59 976.75 175.56 976.48 175.55 976.22 175.54 975.98 175.55 975.74 175.56 975.52 175.59 975.31 175.62 975.12 175.66 974.94 175.71 974.78 175.76 974.63 175.81 974.51 175.87 974.4 175.93 974.3 175.98 974.22 176.04 974.16 176.09 974.1 176.14 974.06 176.19 974.02 176.25 973.99 176.31 973.96 176.37 973.94 176.43 973.92 176.51 973.9 176.6 973.89 176.7 973.88 176.81 973.88 176.94 973.89 177.08 973.91 177.24 973.94 177.41 973.98 177.59 974.04 177.79 974.11 177.99 974.19 178.2 974.29 178.42 974.4 178.64 974.53 178.87 974.67 179.1 974.83 179.34 975 179.58 975.19 179.82 975.39 180.05 975.6 180.28 975.82 180.52 976.06 180.75 976.31 180.98 976.58 181.21 976.86 181.43 977.14 181.64 977.44 181.84 977.74 182.25 978.41 182.42 978.72 182.59 979.05 182.74 979.37 182.88 979.7 183.01 980.02 183.13 980.33 183.23 980.64 183.32 980.96"/>
          <path class="cls-37" d="M183.32,980.96l.08,.3,.06,.29,.05,.29,.04,.28,.03,.27,.02,.26v.25s0,.24,0,.24l-.02,.22-.02,.21-.03,.19-.04,.18h0c-.08,.01-.16,.02-.25,.02-3.65,0-6.61-3.3-6.61-7.38,0-.94,.16-1.84,.45-2.67h.02s.16,.03,.16,.03l.17,.04,.18,.06,.19,.07,.2,.08,.21,.1,.22,.11,.22,.13,.23,.14,.23,.16,.24,.17,.24,.19,.24,.2,.24,.21,.23,.22,.24,.24,.23,.25,.23,.26,.23,.28,.22,.29,.22,.3,.2,.3,.41,.66,.17,.32,.17,.33,.15,.32,.14,.32,.13,.32,.11,.32,.1,.31,.09,.32Z"/>
          <path class="cls-43" d="M147.53,979.53l-20.31-11.1v-5.79s.04-.01,.06-.02l20.25,11.07v5.85Z"/>
          <path class="cls-27" d="M172.76,967.42c.76-.41,6.41-3.56,6.96-3.76,2.58-.89,5.59,1.48,7.1,3.28,.55,.66,1.09,1.44,1.54,2.25,.74,1.32,.24,2.96-1.13,3.7l-1.24,.68c-1.83,1-4.18,.43-5.27-1.28-1.29-2.01-3.15-3.81-5.25-4.39-1.79-.5-3.22,.23-3.63,1.99l-.62-.58c.3-.84,.74-1.42,1.53-1.89"/>
          <path class="cls-15" d="M171.85,969.89l-.62-.58c.22-.62,.53-1.07,.88-1.4h0s0,0,0,0c.1-.09,.21-.19,.33-.27h.02c.47-.34,.99-.5,1.49-.59,2.79-.49,6.62,3.21,8.92,6.87-3.18-.96-7.48-2.74-11.02-4.01"/>
          <polygon class="cls-32" points="110.3 945.18 105.29 942.44 105.29 947.27 110.3 950.01 110.3 945.18"/>
          <path class="cls-46" d="M106.71,947.62v-.3l-.21-.12v.3l.21,.12Zm.6,.33v-.3l-.21-.12v.3l.21,.12Zm.6,.33v-.3l-.21-.12v.3l.21,.12Zm.6,.33v-.3l-.21-.12v.3l.21,.12Zm.6,.33v-.3l-.21-.12v.3l.21,.12Zm.6,.33v-.3l-.21-.12v.3l.21,.12Zm-3.57-2.56v-.3l-.21-.12v.3l.21,.12Zm.59,.33v-.3l-.21-.12v.3l.21,.12Zm.6,.33v-.3l-.21-.12v.3l.21,.12Zm.6,.33v-.3l-.21-.12v.3l.21,.12Zm.6,.33v-.3l-.21-.12v.3l.21,.12Zm.6,.33v-.3l-.21-.12v.3l.21,.12Zm.6,.33v-.3l-.21-.12v.3l.21,.12Zm-2.38-1.91v-.3l-.21-.12v.3l.21,.12Zm.6,.33v-.3l-.21-.12v.3l.21,.12Zm.6,.33v-.3l-.21-.12v.3l.21,.12Zm.6,.33v-.3l-.21-.12v.3l.21,.12Zm.6,.33v-.3l-.21-.12v.3l.21,.12Zm-.6-.94v-.3l-.21-.12v.3l.21,.12Zm.6,.33v-.3l-.21-.12v.3l.21,.12Zm-2.38-1.91v-.3l-.21-.12v.3l.21,.12Zm.6,.33v-.3l-.21-.12v.3l.21,.12Zm.6,.33v-.3l-.21-.12v.3l.21,.12Zm.6,.33v-.3l-.21-.12v.3l.21,.12Zm.6,.33v-.3l-.21-.12v.3l.21,.12Zm-1.19-1.26v-.3l-.21-.12v.3l.21,.12Zm.6,.33v-.3l-.21-.12v.3l.21,.12Zm.6,.33v-.3l-.21-.12v.3l.21,.12Zm-2.98-2.24v-.3l-.21-.12v.3l.21,.12Zm.6,.33v-.3l-.21-.12v.3l.21,.12Zm.6,.33v-.3l-.21-.12v.3l.21,.12Zm.6,.33v-.3l-.21-.12v.3l.21,.12Zm.6,.33v-.3l-.21-.12v.3l.21,.12Zm.6,.33v-.3l-.21-.12v.3l.21,.12Z"/>
          <polygon class="cls-41" points="147.54 963.15 110.3 942.79 110.3 943.06 147.53 963.42 147.54 963.15"/>
          <path class="cls-36" d="M174.62,951.52l-.88,10.23,3.4,1.86,4.41-2.83c-1.43-3.75-2.35-8.1-2.52-12.09l-4.41,2.83Z"/>
          <path class="cls-32" d="M174.62,951.52l-.88,10.23,3.4,1.86c-1.4-3.6-2.38-8.3-2.52-12.09"/>
          <path class="cls-17" d="M172.96,953.98l-1.22-4.32c2.72-1.2,5.4-2.67,7.83-4.3,.06-.04,.14-.1,.23-.17l1.21,4.29c-2.24,1.51-5.06,3.12-8.06,4.49"/>
          <path id="SVGID" class="cls-31" d="M136.67,965.02c-.36-.05-.66,0-.87,.23,.17-.03,.55-.02,.87,.16,.33,.18,.7,.57,.87,.8-.22-.46-.52-.85-.87-1.19m-3.06-4.64c-.15-.42-.38-.83-.75-1.24,.13,.24,.34,.7,.34,1.01s-.2,.55-.34,.64c.36,0,.6-.16,.75-.42Zm-.74,.7c.2,.11,.4,.22,.6,.33,.22,.12,.49,.13,.61,.02,.16-.15,.35-.37,.67-.34-.13-.07-.46-.25-.59-.32-.22-.12-.49-.13-.6-.02-.26,.24-.31,.38-.68,.34Zm0-2.14c.2,.11,.4,.22,.6,.33,.22,.12,.49,.41,.61,.64,.16,.32,.35,.76,.67,1.08-.13-.07-.46-.25-.59-.32-.22-.12-.49-.41-.6-.64-.26-.52-.31-.71-.68-1.08Zm6.93,4.83c.15-.25,.38-.41,.75-.42-.13,.09-.34,.33-.34,.64s.2,.77,.34,1.01c-.36-.4-.6-.82-.75-1.24Zm.74,1.5c-.2-.11-.4-.22-.6-.33-.22-.12-.49-.41-.61-.64-.16-.32-.35-.76-.67-1.08,.13,.07,.46,.25,.59,.32,.22,.12,.49,.41,.6,.64,.26,.52,.31,.71,.68,1.08Zm-2.7,1.08v-.56c0-.21-.15-.54-.32-.75-.25-.29-.6-.66-.75-1.05v.56c0,.21,.15,.54,.32,.75,.4,.46,.57,.6,.75,1.05Zm-2.26-1.23v-.56c0-.21,.15-.39,.32-.4,.25-.02,.6,0,.75-.23v.56c0,.21-.15,.39-.32,.4-.4,.02-.57-.02-.75,.23Zm1.1-5.96c-.36-.34-.66-.72-.87-1.19,.17,.22,.55,.62,.87,.8,.33,.18,.7,.19,.87,.16-.22,.22-.52,.28-.87,.23Zm1.16-.06v.56c0,.21-.15,.39-.32,.4-.25,.02-.6,0-.75,.23v-.56c0-.21,.15-.39,.32-.4,.4-.02,.57,.02,.75-.23Zm-2.26-1.23v.56c0,.21,.15,.54,.32,.75,.25,.29,.6,.66,.75,1.05v-.56c0-.21-.15-.54-.32-.75-.4-.46-.57-.6-.75-1.05Zm1.28,3.03c.68,.44,1.22,1.24,1.29,1.92l.24,.13c-.07-.81-.72-1.77-1.53-2.28v.23Zm-1.59,.35c.07-.6,.61-.82,1.29-.52v-.23c-.81-.37-1.45-.12-1.53,.61l.24,.13Zm1.59,2.6c.81,.37,1.45,.12,1.53-.61l-.24-.13c-.07,.6-.61,.82-1.29,.52v.23Zm-.3-.39c-.68-.44-1.22-1.24-1.29-1.92l-.24-.13c.07,.81,.72,1.77,1.53,2.28v-.23Zm-1.92-3.1c.22-.33,.7-.54,1.2-.45-.17-.18-.43-.51-.6-.69-.34-.15-.71-.37-1-.6,.12,.34,.14,.77,.1,1.02,.1,.24,.2,.48,.3,.72Zm4.14,2.26c-.22-.57-.7-1.31-1.2-1.76,.17,.01,.43-.04,.6-.03,.34,.23,.71,.4,1,.49-.12,.21-.14,.62-.1,.91-.1,.13-.2,.26-.3,.38Zm-4.44-.51c.1-.13,.2-.26,.3-.38,.22,.58,.7,1.31,1.2,1.76-.17-.01-.43,.04-.6,.03m3.54,.47c-.22,.33-.7,.54-1.2,.45,.17,.18,.43,.51,.6,.69,.34,.15,.71,.37,1,.6-.12-.34-.14-.77-.1-1.02-.1-.24-.2-.48-.3-.72Zm1.76-.86c-.2-.11-.4-.22-.6-.33-.22-.12-.49-.13-.61-.02-.16,.15-.35,.37-.67,.34,.13,.07,.46,.25,.59,.32,.22,.12,.49,.13,.6,.02,.26-.24,.31-.38,.68-.34Z"/>
        </g>
      </g>
    </g>
  </g>
</svg>
