<svg width="93" height="40" viewBox="0 0 93 40" fill="none" xmlns="http://www.w3.org/2000/svg">
<g clip-path="url(#clip0_565_4015)">
<path d="M14.473 8.17202V2.50391H5.65268H3.59573H0V32.0964H5.65268V18.8162H14.473V13.4076H5.65268V8.17202H14.473Z" fill="black"/>
<path d="M74.3477 27.5052C68.0665 27.5052 63.9683 23.6286 63.9683 17.4187C63.9683 11.2088 68.5891 7.2093 74.3477 7.2093C77.8015 7.2093 80.861 8.89608 82.7468 11.4547L86.6128 7.77611C83.7268 4.24549 79.3042 1.95776 74.3477 1.95776C65.6107 1.95776 58.5995 7.87855 58.5995 17.4506C58.5995 27.0226 64.8154 32.7545 74.3477 32.7545C79.2457 32.7545 83.6187 30.5828 86.507 27.1752L82.7535 23.3281C80.8678 25.8572 77.806 27.503 74.3455 27.503L74.3477 27.5052Z" fill="black"/>
<path d="M92.9775 2.50391H87.3879V32.0964H92.9775V2.50391Z" fill="black"/>
<path d="M42.6688 23.3372L39.4561 29.8817L41.7023 31.3499L46.7737 26.0756C45.2034 25.5156 43.7683 24.5914 42.6711 23.3372H42.6688Z" fill="#858585"/>
<path d="M51.5455 26.747L51.4982 26.9337L55.4859 32.3218L58.007 31.1723L55.9478 24.2249C54.7019 25.4632 53.1361 26.3487 51.3945 26.7243L51.5477 26.7448L51.5455 26.747Z" fill="#858585"/>
<path d="M49.6846 26.5262C48.6685 26.5262 47.6862 26.3645 46.3975 26.0686L46.8909 33.3461H50.0586L51.8249 26.5307L51.6491 26.3941C51.0071 26.5307 50.365 26.5284 49.6846 26.5284V26.5262Z" fill="#858585"/>
<path d="M40.0531 14.5049L40.3302 13.8721L33.3438 14.7234L33.2154 17.4619L40.1973 18.6524L40.177 18.4566C40.0914 17.924 39.5575 17.43 39.5575 16.8723C39.5575 16.0346 39.8706 15.2811 40.0554 14.5049H40.0531Z" fill="#858585"/>
<path d="M34.5694 23.098L35.6576 25.3448L42.5449 23.2187C41.4342 21.8711 40.506 20.3892 40.1883 18.5613L34.5717 23.098H34.5694Z" fill="#858585"/>
<path d="M42.8581 9.70621L42.8401 9.68117L36.543 6.79248L35.0133 9.00964L40.2897 14.029C40.7786 12.3582 41.673 10.8694 42.8581 9.70621Z" fill="#858585"/>
<path d="M47.382 6.97918L43.0406 1.50684L40.6457 2.79753L43.0338 9.27374C44.2617 8.17199 45.636 7.32746 47.2874 7.00422L47.3843 6.97918H47.382Z" fill="#858585"/>
<path d="M49.8873 26.5307C44.4735 26.5307 40.0847 22.0896 40.0847 16.6104C40.0847 11.1312 44.4735 6.69009 49.8873 6.69009C52.6224 6.69009 55.0939 7.82371 56.8715 9.65162L57.9777 6.97235C55.7766 5.17404 52.9604 4.09277 49.8873 4.09277C42.8446 4.09277 37.1356 9.77226 37.1356 16.7789C37.1356 23.7855 42.8446 29.465 49.8873 29.465C52.3701 29.465 54.6861 28.7593 56.644 27.5392L56.0086 24.3568C54.3302 25.7158 52.2034 26.533 49.8873 26.533V26.5307Z" fill="#858585"/>
<path d="M55.6639 31.8895L58.185 30.7399L56.1257 23.7925C54.8799 25.0308 53.3276 26.0028 51.586 26.3807L55.6661 31.8895H55.6639Z" fill="#EDBC35"/>
<path d="M42.6846 23.3372L39.589 29.6426L41.7541 31.0585L46.6408 25.9754C45.1291 25.436 43.8021 24.5664 42.6846 23.3372Z" fill="#9C224D"/>
<path d="M40.5443 13.5965L33.7088 14.4046L33.5871 17.1431L40.2311 18.329C40.2311 18.329 39.7332 16.0026 40.5443 13.5942V13.5965Z" fill="#EA7031"/>
<path d="M43.2276 9.32847L43.2118 9.32164L37.0026 6.52173L35.4729 8.73889L40.5533 13.5739C41.0422 11.903 42.0425 10.494 43.2276 9.32847Z" fill="#2294CD"/>
<path d="M56.9932 9.76094L59.2957 3.49643L57.0337 2.13745L52.9198 7.16818C54.1927 7.64849 55.3147 8.11059 56.2654 9.08032L56.9932 9.76322V9.76094Z" fill="#858585"/>
<path d="M34.8037 22.9594L35.8581 25.1401L42.4435 23.0777C41.3644 21.7688 40.6006 20.2938 40.2604 18.5L34.8015 22.9616L34.8037 22.9594Z" fill="#0D4E70"/>
<path d="M51.5838 26.383L50.0135 32.9161H47.3752L46.9111 26.0688C46.9111 26.0688 49.1123 26.8405 51.5838 26.383Z" fill="#DC2671"/>
<path d="M49.2835 6.68574C50.3649 6.68574 51.5387 6.64021 52.5052 6.99305L51.5139 0.26416H48.8419L47.5555 6.59013V6.85647C48.1165 6.7472 48.691 6.68802 49.2813 6.68802L49.2835 6.68574Z" fill="#858585"/>
<path d="M49.6778 6.69929C50.7592 6.69929 51.6919 6.80401 52.6922 7.10904L51.8924 0H49.2204L47.979 6.55133L47.9317 6.8336V6.88368C48.4927 6.77441 49.0852 6.69929 49.6755 6.69929H49.6778Z" fill="#ED334E"/>
<path d="M47.9362 6.88372L43.5903 1.41138L41.1954 2.70207L43.5497 9.03942C44.7956 7.95133 46.2983 7.23428 47.9362 6.88144V6.88372Z" fill="#2C8549"/>
<path d="M56.9931 9.76109L59.6877 3.31674L57.4257 1.95776L52.9175 7.16605C54.1905 7.64636 55.2178 8.16309 56.2632 9.07818L56.9909 9.76109H56.9931Z" fill="#AE8437"/>
<path d="M29.0812 15.8752C30.7935 14.5754 31.902 12.5062 31.902 10.1753V10.0182C31.902 6.9656 30.0005 4.36146 27.3284 3.34849C27.2361 3.30979 27.1302 3.27109 26.9995 3.23239C26.9815 3.22784 26.9657 3.22329 26.9477 3.21646C26.7314 3.14817 26.5129 3.09126 26.2898 3.04346C25.3796 2.83403 24.5483 2.74753 24.0369 2.71566C21.1125 2.4516 15.7167 2.60412 15.7167 2.60412C15.7167 2.60412 15.7167 2.63599 15.7167 2.6929V32.0965H20.6597C20.6597 32.0965 26.8508 32.5404 29.5589 31.0881C29.5589 31.0881 29.5634 31.0881 29.5656 31.0858C32.0732 29.9931 33.8282 27.4755 33.8282 24.5413V22.6109C33.8282 19.4923 31.8434 16.8427 29.0812 15.8775V15.8752ZM21.1531 7.94216C21.2928 7.92395 21.4369 7.91256 21.5811 7.91256H23.3587C25.098 7.91256 26.5061 9.33528 26.5061 11.0926C26.5061 12.85 25.098 14.2727 23.3587 14.2727H21.5811C21.4347 14.2727 21.2928 14.2613 21.1531 14.2431V7.94443V7.94216ZM21.1531 26.7744V19.16C21.1531 19.16 27.9187 18.295 28.5608 22.7498C28.5608 22.7498 29.631 27.3366 21.1531 26.7744Z" fill="black"/>
<path d="M0.0653381 39.9613V37.6804H1.23463V38.0333H0.545219V38.5773H1.20308V38.9279H0.545219V39.9613H0.0653381Z" fill="black"/>
<path d="M1.57933 39.9613V37.6804H2.80494V38.0333H2.05696V38.5773H2.74411V38.9279H2.05696V39.5926H2.83198V39.9613H1.57933Z" fill="black"/>
<path d="M3.18344 37.6804H3.93142C4.22431 37.6804 4.42933 37.7646 4.54648 37.9331C4.66589 38.1015 4.72447 38.3975 4.72447 38.8231C4.72447 39.2488 4.66589 39.5425 4.54648 39.7109C4.42708 39.8794 4.22206 39.9636 3.93142 39.9636H3.18344V37.6827V37.6804ZM3.66557 38.0264V39.6039H3.87059C4.02154 39.6039 4.12518 39.5539 4.1815 39.4537C4.23783 39.3535 4.26712 39.1396 4.26712 38.8163C4.26712 38.4931 4.23783 38.2791 4.1815 38.1789C4.12518 38.0788 4.02154 38.0287 3.87059 38.0287H3.66557V38.0264Z" fill="black"/>
<path d="M5.09169 39.9613V37.6804H6.3173V38.0333H5.56932V38.5773H6.25647V38.9279H5.56932V39.5926H6.34434V39.9613H5.09169Z" fill="black"/>
<path d="M7.33789 37.6804C7.61501 37.6804 7.80425 37.7237 7.90338 37.8079C8.00252 37.8921 8.05208 38.0446 8.05208 38.2677C8.05208 38.443 8.0273 38.5727 7.97548 38.6615C7.92366 38.748 7.8403 38.8072 7.72089 38.8368C7.85607 38.8641 7.94844 38.9119 7.99801 38.9825C8.04757 39.0531 8.07236 39.1828 8.07236 39.3786C8.07236 39.39 8.07236 39.4104 8.0701 39.4355C8.0701 39.4605 8.06785 39.481 8.06785 39.4924C8.06785 39.5971 8.07236 39.6859 8.08137 39.761C8.09038 39.8361 8.10615 39.9044 8.12643 39.9636H7.63303C7.6105 39.8885 7.59923 39.7382 7.59698 39.5129C7.59698 39.4355 7.59698 39.3763 7.59473 39.333C7.59248 39.2192 7.56995 39.1396 7.53165 39.094C7.49335 39.0485 7.42801 39.0235 7.33564 39.0235H7.13738V39.9636H6.662V37.6827H7.33564L7.33789 37.6804ZM7.13963 38.6661H7.25678C7.38295 38.6661 7.47307 38.641 7.52263 38.5932C7.5722 38.5454 7.59698 38.4612 7.59698 38.3406C7.59698 38.2199 7.57445 38.1448 7.52939 38.1015C7.48433 38.0583 7.39647 38.0378 7.2658 38.0378H7.13963V38.6684V38.6661Z" fill="black"/>
<path d="M9.64043 39.9613L9.51877 39.4537H8.86091L8.7415 39.9613H8.26387L8.90371 37.6804H9.50751L10.1383 39.9613H9.64043ZM8.94877 39.1031H9.43316L9.19885 38.1152L8.94877 39.1031Z" fill="black"/>
<path d="M10.5506 39.9613V38.0537H10.0347V37.6804H11.56V38.0537H11.0395V39.9613H10.5529H10.5506Z" fill="black"/>
<path d="M11.7852 39.9613V37.6804H12.2471V39.9613H11.7852Z" fill="black"/>
<path d="M13.3894 39.9976C13.2857 39.9976 13.1866 39.9839 13.0965 39.9566C13.0064 39.9293 12.9343 39.8906 12.8779 39.8428C12.7856 39.7608 12.718 39.6424 12.6774 39.4876C12.6369 39.3329 12.6166 39.1029 12.6166 38.7956C12.6166 38.5589 12.6279 38.3745 12.6526 38.2402C12.6774 38.1082 12.718 37.9989 12.7743 37.9147C12.8306 37.8305 12.9095 37.7645 13.0154 37.7189C13.1213 37.6734 13.2429 37.6506 13.3849 37.6506C13.493 37.6506 13.5921 37.6643 13.6822 37.6939C13.7724 37.7212 13.8467 37.7622 13.903 37.8123C13.9932 37.8919 14.0562 38.0012 14.0945 38.1423C14.1328 38.2835 14.1531 38.4906 14.1531 38.766C14.1531 39.0415 14.1418 39.2623 14.1171 39.3966C14.0923 39.5309 14.0517 39.6402 13.9932 39.7289C13.9368 39.8132 13.858 39.8792 13.7521 39.927C13.6462 39.9748 13.5268 39.9976 13.3894 39.9976ZM13.0942 38.8161C13.0942 39.153 13.1145 39.3738 13.1573 39.4808C13.2001 39.5878 13.2745 39.6424 13.3826 39.6424C13.4907 39.6424 13.5718 39.5901 13.6147 39.4876C13.6575 39.3852 13.6777 39.153 13.6777 38.7934C13.6777 38.477 13.6575 38.2652 13.6147 38.1628C13.5718 38.0604 13.4975 38.008 13.3871 38.008C13.2767 38.008 13.1979 38.0604 13.1573 38.1651C13.1145 38.2698 13.0942 38.4883 13.0942 38.8161Z" fill="black"/>
<path d="M14.5248 39.9613V37.6804H15.1624L15.5973 38.8641C15.6491 39.003 15.6941 39.1373 15.7324 39.2693C15.7707 39.4013 15.8045 39.5288 15.8338 39.6563C15.8225 39.5584 15.8135 39.456 15.8068 39.3467C15.8 39.2374 15.7978 39.1213 15.7978 38.9939L15.7707 37.6804H16.2101V39.9613H15.5882L15.1286 38.7139C15.0948 38.6206 15.0588 38.5067 15.0205 38.377C14.9822 38.245 14.9416 38.1015 14.9011 37.9445C14.9124 38.0879 14.9214 38.2154 14.9281 38.3246C14.9349 38.4339 14.9371 38.5272 14.9394 38.6023L14.9664 39.9613H14.5316H14.5248Z" fill="black"/>
<path d="M18.1206 39.9976C18.0169 39.9976 17.9178 39.9839 17.8277 39.9566C17.7376 39.9293 17.6655 39.8906 17.6092 39.8428C17.5168 39.7608 17.4492 39.6424 17.4086 39.4876C17.3681 39.3329 17.3478 39.1029 17.3478 38.7956C17.3478 38.5589 17.3591 38.3745 17.3839 38.2402C17.4086 38.1082 17.4492 37.9989 17.5055 37.9147C17.5618 37.8305 17.6407 37.7645 17.7466 37.7189C17.8525 37.6734 17.9741 37.6506 18.1161 37.6506C18.2242 37.6506 18.3233 37.6643 18.4135 37.6939C18.5036 37.7212 18.5779 37.7622 18.6342 37.8123C18.7244 37.8919 18.7875 38.0012 18.8258 38.1423C18.8641 38.2835 18.8843 38.4906 18.8843 38.766C18.8843 39.0415 18.8731 39.2623 18.8483 39.3966C18.8235 39.5309 18.7829 39.6402 18.7244 39.7289C18.668 39.8132 18.5892 39.8792 18.4833 39.927C18.3774 39.9748 18.258 39.9976 18.1206 39.9976ZM17.8254 38.8161C17.8254 39.153 17.8457 39.3738 17.8885 39.4808C17.9313 39.5878 18.0057 39.6424 18.1138 39.6424C18.222 39.6424 18.3031 39.5901 18.3459 39.4876C18.3887 39.3852 18.409 39.153 18.409 38.7934C18.409 38.477 18.3887 38.2652 18.3459 38.1628C18.3031 38.0604 18.2287 38.008 18.1183 38.008C18.0079 38.008 17.9291 38.0604 17.8885 38.1651C17.8457 38.2698 17.8254 38.4883 17.8254 38.8161Z" fill="black"/>
<path d="M19.2561 39.9613V37.6804H20.4254V38.0333H19.7337V38.5773H20.3916V38.9279H19.7337V39.9613H19.2561Z" fill="black"/>
<path d="M21.5473 39.9613V37.6804H22.3494C22.5747 37.6804 22.7414 37.7259 22.8495 37.817C22.9577 37.9081 23.014 38.0469 23.014 38.2336C23.014 38.3884 22.9802 38.5136 22.9126 38.6092C22.845 38.7071 22.7527 38.7594 22.6378 38.7708C22.7684 38.7936 22.8698 38.8527 22.9419 38.9483C23.014 39.044 23.0501 39.1669 23.0501 39.3148C23.0501 39.5379 22.996 39.7018 22.8856 39.8043C22.7752 39.9067 22.6017 39.959 22.3652 39.959H21.5473V39.9613ZM22.0047 38.6046H22.2728C22.3697 38.6046 22.4395 38.5796 22.4868 38.5295C22.5319 38.4794 22.5567 38.4043 22.5567 38.2996C22.5567 38.2131 22.5319 38.1471 22.4846 38.0993C22.435 38.0537 22.3652 38.0287 22.275 38.0287H22.0069V38.6001L22.0047 38.6046ZM22.0047 39.6039H22.23C22.3516 39.6039 22.4395 39.5789 22.4958 39.5265C22.5522 39.4742 22.5814 39.3922 22.5814 39.2807C22.5814 39.1692 22.5544 39.0895 22.4981 39.0371C22.4418 38.9848 22.3584 38.9575 22.2435 38.9575H22.0024V39.6039H22.0047Z" fill="black"/>
<path d="M24.6114 39.9613L24.4897 39.4537H23.8318L23.7124 39.9613H23.2348L23.8746 37.6804H24.4784L25.1093 39.9613H24.6114ZM23.9197 39.1031H24.4041L24.1698 38.1152L23.9197 39.1031Z" fill="black"/>
<path d="M25.3458 39.9613V37.6804H25.9834L26.4182 38.8641C26.4701 39.003 26.5151 39.1373 26.5534 39.2693C26.5917 39.4013 26.6255 39.5288 26.6548 39.6563C26.6435 39.5584 26.6345 39.456 26.6278 39.3467C26.621 39.2374 26.6187 39.1213 26.6187 38.9939L26.5917 37.6804H27.031V39.9613H26.4092L25.9496 38.7139C25.9158 38.6206 25.8798 38.5067 25.8415 38.377C25.8032 38.245 25.7626 38.1015 25.7221 37.9445C25.7333 38.0879 25.7423 38.2154 25.7491 38.3246C25.7559 38.4339 25.7581 38.5272 25.7604 38.6023L25.7874 39.9613H25.3526H25.3458Z" fill="black"/>
<path d="M28.9168 38.7617V39.9203C28.7636 39.9476 28.6351 39.9681 28.5292 39.9795C28.4234 39.9909 28.3287 39.9977 28.2409 39.9977C28.1034 39.9977 27.9863 39.9841 27.8894 39.959C27.7925 39.934 27.7159 39.893 27.6551 39.8406C27.5627 39.7587 27.4951 39.6426 27.4568 39.4924C27.4185 39.3421 27.3983 39.1008 27.3983 38.7685C27.3983 38.5386 27.4095 38.361 27.4343 38.2335C27.4591 38.1061 27.4996 38.0014 27.556 37.9171C27.6145 37.8284 27.6956 37.7646 27.8038 37.7191C27.9097 37.6758 28.0403 37.6531 28.1935 37.6531C28.4301 37.6531 28.6081 37.7123 28.732 37.8306C28.8559 37.949 28.9168 38.122 28.9168 38.3496V38.3838H28.4504V38.3565C28.4504 38.2267 28.4279 38.1311 28.3828 38.0696C28.3377 38.0082 28.2702 37.9763 28.1778 37.9763C28.0629 37.9763 27.9818 38.0287 27.939 38.1311C27.8962 38.2358 27.8736 38.4635 27.8736 38.8163C27.8736 39.1896 27.9007 39.4218 27.9525 39.5197C28.0043 39.6153 28.1034 39.6654 28.2476 39.6654C28.2792 39.6654 28.313 39.6631 28.3513 39.6585C28.3896 39.654 28.4324 39.6449 28.4819 39.6312V39.1213H28.2206V38.7639H28.9145L28.9168 38.7617Z" fill="black"/>
<path d="M29.2907 39.9613V37.6804H29.7684V39.5584H30.4623V39.9613H29.2907Z" fill="black"/>
<path d="M31.911 39.9613L31.7893 39.4537H31.1314L31.012 39.9613H30.5344L31.1742 37.6804H31.778L32.4089 39.9613H31.911ZM31.2193 39.1031H31.7037L31.4694 38.1152L31.2193 39.1031Z" fill="black"/>
<path d="M32.6792 37.6804H33.4272C33.7201 37.6804 33.9251 37.7646 34.0422 37.9331C34.1616 38.1015 34.2202 38.3975 34.2202 38.8231C34.2202 39.2488 34.1616 39.5425 34.0422 39.7109C33.9228 39.8794 33.7178 39.9636 33.4272 39.9636H32.6792V37.6827V37.6804ZM33.1613 38.0264V39.6039H33.3664C33.5173 39.6039 33.6209 39.5539 33.6773 39.4537C33.7336 39.3535 33.7629 39.1396 33.7629 38.8163C33.7629 38.4931 33.7336 38.2791 33.6773 38.1789C33.6209 38.0788 33.5173 38.0287 33.3664 38.0287H33.1613V38.0264Z" fill="black"/>
<path d="M34.5875 39.9613V37.6804H35.8131V38.0333H35.0651V38.5773H35.7522V38.9279H35.0651V39.5926H35.8401V39.9613H34.5875Z" fill="black"/>
<path d="M36.0992 39.2578H36.5813V39.3193C36.5813 39.4376 36.6016 39.5196 36.6399 39.5697C36.6805 39.6197 36.7458 39.6448 36.8382 39.6448C36.9103 39.6448 36.9688 39.622 37.0117 39.5765C37.0545 39.531 37.0747 39.4695 37.0747 39.3921C37.0747 39.2828 36.9734 39.1645 36.7728 39.0325C36.7593 39.0233 36.7503 39.0188 36.7503 39.0188C36.6377 38.946 36.5543 38.889 36.4912 38.8435C36.4281 38.8003 36.3808 38.7616 36.3515 38.7342C36.2682 38.6569 36.2119 38.5863 36.1803 38.518C36.1488 38.4497 36.1353 38.3678 36.1353 38.2676C36.1353 38.0764 36.2006 37.9239 36.329 37.8123C36.4597 37.6985 36.6332 37.6416 36.8517 37.6416C37.0702 37.6416 37.2482 37.694 37.3631 37.7987C37.478 37.9034 37.5343 38.0604 37.5343 38.2676V38.3268H37.0657V38.3154C37.0657 38.2084 37.0454 38.1265 37.0071 38.0741C36.9688 38.0195 36.9103 37.9922 36.8337 37.9922C36.7638 37.9922 36.7075 38.0126 36.667 38.0559C36.6264 38.0991 36.6039 38.1561 36.6039 38.2266C36.6039 38.3495 36.7345 38.4884 36.9981 38.6455C37.0657 38.6864 37.1175 38.7183 37.1558 38.7434C37.3045 38.839 37.4082 38.93 37.4668 39.0165C37.5253 39.103 37.5546 39.2077 37.5546 39.3284C37.5546 39.5492 37.4893 39.7176 37.3609 39.8292C37.2324 39.9407 37.0409 39.9976 36.7864 39.9976C36.5475 39.9976 36.3741 39.9453 36.2637 39.8383C36.1533 39.7313 36.097 39.5651 36.097 39.3375C36.097 39.3284 36.097 39.317 36.097 39.2988C36.097 39.2806 36.097 39.2669 36.097 39.2578H36.0992Z" fill="black"/>
<path d="M38.3679 39.9613H37.8948V37.6804H38.3679V38.5682H38.8839V37.6804H39.3592V39.9613H38.8839V38.9506H38.3679V39.9613Z" fill="black"/>
<path d="M41.9749 39.1827C41.9749 39.1941 41.9772 39.2077 41.9794 39.2237C41.9794 39.2373 41.9794 39.2601 41.9794 39.2874C41.9794 39.515 41.9186 39.6903 41.7969 39.8133C41.6753 39.9362 41.4995 39.9976 41.2742 39.9976C41.1706 39.9976 41.0715 39.984 40.9814 39.9567C40.8912 39.9293 40.8191 39.8906 40.7628 39.8428C40.6704 39.7609 40.6029 39.6471 40.5646 39.4968C40.5263 39.3466 40.506 39.1053 40.506 38.7707C40.506 38.5408 40.5172 38.3632 40.542 38.2357C40.5668 38.1083 40.6074 38.0036 40.6637 37.9193C40.72 37.8328 40.8011 37.7691 40.9048 37.7236C41.0084 37.678 41.1301 37.6553 41.272 37.6553C41.5018 37.6553 41.6753 37.7145 41.7902 37.8306C41.9073 37.9489 41.9659 38.1219 41.9659 38.3541V38.3974H41.4905V38.3541C41.4905 38.2335 41.4725 38.1447 41.4342 38.0855C41.3959 38.0263 41.3396 37.999 41.263 37.999C41.1571 37.999 41.0827 38.0491 41.0422 38.1515C41.0016 38.254 40.9814 38.4907 40.9814 38.864C40.9814 39.1759 41.0016 39.3853 41.0444 39.4877C41.085 39.5924 41.1616 39.6425 41.2675 39.6425C41.3441 39.6425 41.4027 39.6107 41.441 39.5492C41.4793 39.4855 41.4995 39.3899 41.4995 39.2624C41.4995 39.2533 41.4995 39.2419 41.4995 39.2237C41.4995 39.2077 41.4995 39.1941 41.4995 39.1827H41.9794H41.9749Z" fill="black"/>
<path d="M42.7767 39.9611H42.3036V37.6802H42.7767V38.568H43.2927V37.6802H43.768V39.9611H43.2927V38.9504H42.7767V39.9611Z" fill="black"/>
<path d="M45.3794 39.9611L45.2577 39.4535H44.5999L44.4805 39.9611H44.0028L44.6427 37.6802H45.2465L45.8773 39.9611H45.3794ZM44.6877 39.1029H45.1721L44.9378 38.115L44.6877 39.1029Z" fill="black"/>
<path d="M46.1114 39.9613V37.6804H46.8413L47.1635 39.0781C47.1748 39.1282 47.1883 39.1919 47.1996 39.2693C47.2108 39.3467 47.2221 39.44 47.2334 39.5516C47.2379 39.4742 47.2469 39.3945 47.2559 39.3148C47.2649 39.2352 47.2784 39.1555 47.2964 39.0758L47.5826 37.6804H48.3418V39.9613H47.9002L47.9205 38.402C47.9205 38.2837 47.9228 38.1789 47.9273 38.0856C47.9318 37.9923 47.9363 37.9058 47.9408 37.8307L47.4677 39.9613H47.0148L46.5169 37.8261C46.5304 37.965 46.5394 38.1539 46.5439 38.3884C46.5439 38.3952 46.5439 38.3997 46.5439 38.3997L46.571 39.9613H46.1069H46.1114Z" fill="black"/>
<path d="M48.7406 39.9613V37.6804H49.5426C49.7679 37.6804 49.9346 37.7259 50.0428 37.817C50.1509 37.9081 50.2073 38.0469 50.2073 38.2336C50.2073 38.3884 50.1735 38.5136 50.1059 38.6092C50.0383 38.7071 49.9459 38.7594 49.831 38.7708C49.9617 38.7936 50.0631 38.8527 50.1352 38.9483C50.2072 39.044 50.2433 39.1669 50.2433 39.3148C50.2433 39.5379 50.1892 39.7018 50.0788 39.8043C49.9684 39.9067 49.795 39.959 49.5584 39.959H48.7406V39.9613ZM49.1979 38.6046H49.466C49.5629 38.6046 49.6327 38.5796 49.6801 38.5295C49.7274 38.4794 49.7499 38.4043 49.7499 38.2996C49.7499 38.2131 49.7251 38.1471 49.6778 38.0993C49.6305 38.0515 49.5584 38.0287 49.4683 38.0287H49.2002V38.6001L49.1979 38.6046ZM49.1979 39.6039H49.4232C49.5449 39.6039 49.6327 39.5789 49.6891 39.5265C49.7454 39.4742 49.7747 39.3922 49.7747 39.2807C49.7747 39.1692 49.7476 39.0895 49.6913 39.0371C49.635 38.9848 49.5516 38.9575 49.4367 38.9575H49.1979V39.6039Z" fill="black"/>
<path d="M50.5993 39.9613V37.6804H51.8249V38.0333H51.0769V38.5773H51.7641V38.9279H51.0769V39.5926H51.8519V39.9613H50.5993Z" fill="black"/>
<path d="M52.8455 37.6804C53.1226 37.6804 53.3118 37.7237 53.411 37.8079C53.5101 37.8921 53.5597 38.0446 53.5597 38.2677C53.5597 38.443 53.5349 38.5727 53.4831 38.6615C53.4312 38.748 53.3479 38.8072 53.2285 38.8368C53.3637 38.8641 53.456 38.9119 53.5056 38.9825C53.5552 39.0508 53.5799 39.1828 53.5799 39.3786C53.5799 39.39 53.5799 39.4104 53.5777 39.4355C53.5777 39.4605 53.5777 39.481 53.5777 39.4924C53.5777 39.5971 53.5822 39.6859 53.5912 39.761C53.6002 39.8361 53.616 39.9044 53.6363 39.9636H53.1429C53.1203 39.8885 53.1091 39.7382 53.1068 39.5129C53.1068 39.4355 53.1068 39.3763 53.1046 39.333C53.1023 39.2192 53.0798 39.1396 53.0415 39.094C53.0032 39.0485 52.9378 39.0235 52.8455 39.0235H52.6472V39.9636H52.1718V37.6827H52.8455V37.6804ZM52.6472 38.6661H52.7644C52.8905 38.6661 52.9807 38.641 53.0302 38.5932C53.0798 38.5454 53.1046 38.4612 53.1046 38.3406C53.1046 38.2199 53.082 38.1448 53.037 38.1015C52.9919 38.0583 52.9041 38.0378 52.7734 38.0378H52.6472V38.6684V38.6661Z" fill="black"/>
<path d="M53.8818 39.2578H54.364V39.3193C54.364 39.4376 54.3842 39.5196 54.4225 39.5697C54.4608 39.6197 54.5284 39.6448 54.6208 39.6448C54.6929 39.6448 54.7515 39.622 54.7943 39.5765C54.8371 39.531 54.8574 39.4695 54.8574 39.3921C54.8574 39.2828 54.756 39.1645 54.5555 39.0325C54.5419 39.0233 54.5329 39.0188 54.5262 39.0142C54.4203 38.9459 54.3369 38.889 54.2738 38.8435C54.2108 38.8003 54.1635 38.7616 54.1342 38.7342C54.0508 38.6569 53.9945 38.5863 53.9629 38.518C53.9314 38.4497 53.9179 38.3678 53.9179 38.2676C53.9179 38.0764 53.9832 37.9239 54.1116 37.8123C54.2423 37.6985 54.4158 37.6416 54.6366 37.6416C54.8574 37.6416 55.0331 37.694 55.148 37.7987C55.2629 37.9034 55.3192 38.0604 55.3192 38.2676V38.3268H54.8506V38.3154C54.8506 38.2084 54.8303 38.1265 54.792 38.0741C54.7537 38.0195 54.6951 37.9922 54.6185 37.9922C54.5487 37.9922 54.4924 38.0126 54.4518 38.0559C54.4113 38.0991 54.3887 38.1561 54.3887 38.2266C54.3887 38.3495 54.5194 38.4884 54.783 38.6455C54.8506 38.6864 54.9024 38.7183 54.9407 38.7434C55.0894 38.839 55.1931 38.93 55.2516 39.0165C55.3102 39.103 55.3395 39.2077 55.3395 39.3284C55.3395 39.5492 55.2742 39.7176 55.1457 39.8292C55.0173 39.9407 54.8258 39.9976 54.5712 39.9976C54.3324 39.9976 54.1589 39.9453 54.0463 39.8383C53.9359 39.7313 53.8796 39.5651 53.8796 39.3375C53.8796 39.3284 53.8796 39.317 53.8796 39.2988C53.8796 39.2806 53.8796 39.2669 53.8796 39.2578H53.8818Z" fill="black"/>
<path d="M57.1869 39.9976C57.0833 39.9976 56.9842 39.9839 56.894 39.9566C56.8039 39.9293 56.7318 39.8906 56.6755 39.8428C56.5831 39.7608 56.5155 39.6424 56.475 39.4876C56.4344 39.3329 56.4142 39.1029 56.4142 38.7956C56.4142 38.5589 56.4254 38.3745 56.4502 38.2402C56.475 38.1082 56.5155 37.9989 56.5719 37.9147C56.6282 37.8305 56.707 37.7645 56.8129 37.7189C56.9188 37.6734 57.0405 37.6506 57.1824 37.6506C57.2906 37.6506 57.3897 37.6643 57.4798 37.6939C57.5699 37.7212 57.6443 37.7622 57.7006 37.8123C57.7907 37.8919 57.8538 38.0012 57.8921 38.1423C57.9304 38.2835 57.9507 38.4906 57.9507 38.766C57.9507 39.0415 57.9372 39.2623 57.9146 39.3966C57.8898 39.5309 57.8493 39.6402 57.7907 39.7289C57.7344 39.8132 57.6555 39.8792 57.5496 39.927C57.4438 39.9748 57.3221 39.9976 57.1869 39.9976ZM56.8918 38.8161C56.8918 39.153 56.9121 39.3738 56.9549 39.4808C56.9977 39.5878 57.072 39.6424 57.1802 39.6424C57.2883 39.6424 57.3694 39.5901 57.4122 39.4876C57.455 39.3852 57.4753 39.153 57.4753 38.7934C57.4753 38.477 57.455 38.2652 57.4122 38.1628C57.3694 38.0604 57.2951 38.008 57.1847 38.008C57.0743 38.008 56.9954 38.0604 56.9549 38.1651C56.9121 38.2698 56.8918 38.4883 56.8918 38.8161Z" fill="black"/>
<path d="M58.3224 39.9613V37.6804H59.4917V38.0333H58.8V38.5773H59.4579V38.9279H58.8V39.9613H58.3224Z" fill="black"/>
<path d="M62.0488 39.1827C62.0488 39.1941 62.0511 39.2077 62.0533 39.2237C62.0533 39.2373 62.0533 39.2601 62.0533 39.2874C62.0533 39.515 61.9925 39.6903 61.8708 39.8133C61.7492 39.9362 61.5734 39.9976 61.3481 39.9976C61.2445 39.9976 61.1454 39.984 61.0553 39.9567C60.9651 39.9293 60.8931 39.8906 60.8367 39.8428C60.7444 39.7609 60.6768 39.6471 60.6385 39.4968C60.6002 39.3466 60.5799 39.1053 60.5799 38.7707C60.5799 38.5408 60.5912 38.3632 60.6159 38.2357C60.6407 38.1083 60.6813 38.0036 60.7376 37.9193C60.7939 37.8328 60.875 37.7691 60.9787 37.7236C61.0823 37.678 61.204 37.6553 61.3459 37.6553C61.5757 37.6553 61.7492 37.7145 61.8641 37.8306C61.9812 37.9489 62.0376 38.1219 62.0376 38.3541V38.3974H61.5622V38.3541C61.5622 38.2335 61.5442 38.1447 61.5059 38.0855C61.4676 38.0263 61.4112 37.999 61.3346 37.999C61.2287 37.999 61.1544 38.0491 61.1138 38.1515C61.0733 38.254 61.053 38.4907 61.053 38.864C61.053 39.1759 61.0733 39.3853 61.1161 39.4877C61.1566 39.5924 61.2333 39.6425 61.3391 39.6425C61.4157 39.6425 61.4743 39.6107 61.5126 39.5492C61.5509 39.4855 61.5712 39.3899 61.5712 39.2624C61.5712 39.2533 61.5712 39.2419 61.5712 39.2237C61.5712 39.2077 61.5712 39.1941 61.5712 39.1827H62.0511H62.0488Z" fill="black"/>
<path d="M63.11 39.9976C63.0063 39.9976 62.9072 39.9839 62.8171 39.9566C62.727 39.9293 62.6549 39.8906 62.5985 39.8428C62.5062 39.7608 62.4386 39.6424 62.398 39.4876C62.3575 39.3329 62.3372 39.1029 62.3372 38.7956C62.3372 38.5589 62.3485 38.3745 62.3732 38.2402C62.398 38.1082 62.4386 37.9989 62.4949 37.9147C62.5512 37.8305 62.6301 37.7645 62.736 37.7189C62.8418 37.6734 62.9635 37.6506 63.1054 37.6506C63.2136 37.6506 63.3127 37.6643 63.4028 37.6939C63.493 37.7212 63.5673 37.7622 63.6236 37.8123C63.7137 37.8919 63.7768 38.0012 63.8151 38.1423C63.8534 38.2835 63.8737 38.4906 63.8737 38.766C63.8737 39.0415 63.8602 39.2623 63.8377 39.3966C63.8129 39.5309 63.7723 39.6402 63.7137 39.7289C63.6574 39.8132 63.5786 39.8792 63.4727 39.927C63.3668 39.9748 63.2451 39.9976 63.11 39.9976ZM62.8148 38.8161C62.8148 39.153 62.8351 39.3738 62.8779 39.4808C62.9207 39.5878 62.9951 39.6424 63.1032 39.6424C63.2113 39.6424 63.2924 39.5901 63.3352 39.4876C63.3781 39.3852 63.3983 39.153 63.3983 38.7934C63.3983 38.477 63.3781 38.2652 63.3352 38.1628C63.2924 38.0604 63.2181 38.008 63.1077 38.008C62.9973 38.008 62.9185 38.0604 62.8779 38.1651C62.8351 38.2698 62.8148 38.4883 62.8148 38.8161Z" fill="black"/>
<path d="M64.241 39.9613V37.6804H64.9709L65.2931 39.0781C65.3044 39.1282 65.3179 39.1919 65.3291 39.2693C65.3404 39.3467 65.3517 39.44 65.3629 39.5516C65.3674 39.4742 65.3765 39.3945 65.3855 39.3148C65.3967 39.2352 65.408 39.1555 65.426 39.0758L65.7121 37.6804H66.4714V39.9613H66.0298L66.0501 38.402C66.0501 38.2837 66.0523 38.1789 66.0569 38.0856C66.0614 37.9923 66.0659 37.9058 66.0704 37.8307L65.5972 39.9613H65.1444L64.6465 37.8261C64.66 37.965 64.669 38.1539 64.6735 38.3884C64.6735 38.3952 64.6735 38.3997 64.6735 38.3997L64.7006 39.9613H64.2387H64.241Z" fill="black"/>
<path d="M66.8679 39.9613V37.6804H67.5979L67.92 39.0781C67.9313 39.1282 67.9448 39.1919 67.9561 39.2693C67.9674 39.3467 67.9786 39.44 67.9899 39.5516C67.9944 39.4742 68.0034 39.3945 68.0124 39.3148C68.0237 39.2352 68.0349 39.1555 68.053 39.0758L68.3391 37.6804H69.0983V39.9613H68.6568L68.677 38.402C68.677 38.2837 68.6793 38.1789 68.6838 38.0856C68.6883 37.9923 68.6928 37.9058 68.6973 37.8307L68.2242 39.9613H67.7713L67.2734 37.8261C67.287 37.965 67.296 38.1539 67.3005 38.3884C67.3005 38.3952 67.3005 38.3997 67.3005 38.3997L67.3275 39.9613H66.8657H66.8679Z" fill="black"/>
<path d="M69.4994 39.9613V37.6804H70.725V38.0333H69.977V38.5773H70.6641V38.9279H69.977V39.5926H70.752V39.9613H69.4994Z" fill="black"/>
<path d="M71.7456 37.6804C72.0227 37.6804 72.2119 37.7237 72.3111 37.8079C72.4102 37.8921 72.4598 38.0446 72.4598 38.2677C72.4598 38.443 72.435 38.5727 72.3832 38.6615C72.3313 38.748 72.248 38.8072 72.1286 38.8368C72.2637 38.8641 72.3561 38.9119 72.4057 38.9825C72.4553 39.0531 72.48 39.1828 72.48 39.3786C72.48 39.39 72.48 39.4104 72.4778 39.4355C72.4778 39.4605 72.4778 39.481 72.4778 39.4924C72.4778 39.5971 72.4823 39.6859 72.4913 39.761C72.5003 39.8361 72.5161 39.9044 72.5364 39.9636H72.043C72.0204 39.8885 72.0092 39.7382 72.0069 39.5129C72.0069 39.4355 72.0069 39.3763 72.0047 39.333C72.0024 39.2192 71.9799 39.1396 71.9416 39.094C71.9033 39.0485 71.8379 39.0235 71.7456 39.0235H71.5473V39.9636H71.0719V37.6827H71.7456V37.6804ZM71.5473 38.6661H71.6645C71.7906 38.6661 71.8807 38.641 71.9303 38.5932C71.9799 38.5454 72.0047 38.4612 72.0047 38.3406C72.0047 38.2199 71.9821 38.1448 71.9371 38.1015C71.892 38.0583 71.8041 38.0378 71.6735 38.0378H71.5473V38.6684V38.6661Z" fill="black"/>
<path d="M74.2779 39.1827C74.2779 39.1941 74.2801 39.2077 74.2824 39.2237C74.2824 39.2373 74.2824 39.2601 74.2824 39.2874C74.2824 39.515 74.2216 39.6903 74.0999 39.8133C73.9782 39.9362 73.8025 39.9976 73.5772 39.9976C73.4736 39.9976 73.3744 39.984 73.2843 39.9567C73.1942 39.9293 73.1221 39.8906 73.0658 39.8428C72.9734 39.7609 72.9058 39.6471 72.8675 39.4968C72.8292 39.3466 72.809 39.1053 72.809 38.7707C72.809 38.5408 72.8202 38.3632 72.845 38.2357C72.8698 38.1083 72.9103 38.0036 72.9667 37.9193C73.023 37.8328 73.1041 37.7691 73.2077 37.7236C73.3114 37.678 73.433 37.6553 73.575 37.6553C73.8048 37.6553 73.9782 37.7145 74.0931 37.8306C74.2103 37.9489 74.2666 38.1219 74.2666 38.3541V38.3974H73.7912V38.3541C73.7912 38.2335 73.7732 38.1447 73.7349 38.0855C73.6966 38.0263 73.6403 37.999 73.5637 37.999C73.4578 37.999 73.3835 38.0491 73.3429 38.1515C73.3024 38.254 73.2821 38.4907 73.2821 38.864C73.2821 39.1759 73.3024 39.3853 73.3452 39.4877C73.3857 39.5924 73.4623 39.6425 73.5682 39.6425C73.6448 39.6425 73.7034 39.6107 73.7417 39.5492C73.78 39.4855 73.8003 39.3899 73.8003 39.2624C73.8003 39.2533 73.8003 39.2419 73.8003 39.2237C73.8003 39.2077 73.8003 39.1941 73.8003 39.1827H74.2801H74.2779Z" fill="black"/>
<path d="M74.6068 39.9613V37.6804H75.8324V38.0333H75.0844V38.5773H75.7716V38.9279H75.0844V39.5926H75.8595V39.9613H74.6068Z" fill="black"/>
<path d="M77.6956 38.6363H77.7948V38.329H78.2476V38.6363H78.527V38.9573H78.2476V39.9634H77.5267C77.396 39.9634 77.2991 39.9543 77.2315 39.9361C77.1662 39.9179 77.1076 39.8883 77.058 39.8451C76.995 39.7927 76.9499 39.7267 76.9206 39.6425C76.8913 39.5605 76.8778 39.4535 76.8778 39.3215C76.8778 39.169 76.9116 39.0506 76.9792 38.9664C77.0468 38.8822 77.1527 38.8275 77.2969 38.8002C77.1729 38.7638 77.0851 38.7001 77.0333 38.6136C76.9814 38.5271 76.9544 38.3973 76.9544 38.2289C76.9544 38.0331 77.0085 37.8942 77.1166 37.8077C77.2248 37.7212 77.4005 37.678 77.6461 37.678H77.7745V38.0331H77.6979C77.601 38.0331 77.5334 38.0536 77.4951 38.0923C77.4568 38.1332 77.4365 38.2038 77.4365 38.304C77.4365 38.4178 77.4568 38.4997 77.4996 38.5544C77.5424 38.609 77.6078 38.634 77.6979 38.634L77.6956 38.6363ZM77.7948 39.6129V38.9573H77.6934C77.565 38.9573 77.4771 38.98 77.4298 39.0279C77.3825 39.0757 77.3599 39.1599 77.3599 39.2805C77.3599 39.4012 77.3802 39.4945 77.423 39.5423C77.4658 39.5901 77.5514 39.6129 77.6844 39.6129H77.7948Z" fill="black"/>
<path d="M79.5588 39.9613V37.6804H80.0229V39.9613H79.5588Z" fill="black"/>
<path d="M80.4307 39.9613V37.6804H81.0683L81.5031 38.8641C81.555 39.003 81.6 39.1373 81.6383 39.2693C81.6766 39.4013 81.7104 39.5288 81.7397 39.6563C81.7284 39.5584 81.7194 39.456 81.7127 39.3467C81.7059 39.2374 81.7036 39.1213 81.7036 38.9939L81.6766 37.6804H82.1159V39.9613H81.4941L81.0345 38.7139C81.0007 38.6206 80.9647 38.5067 80.9264 38.377C80.8881 38.245 80.8475 38.1015 80.807 37.9445C80.8182 38.0879 80.8272 38.2154 80.834 38.3246C80.8408 38.4339 80.843 38.5272 80.8453 38.6023L80.8723 39.9613H80.4375H80.4307Z" fill="black"/>
<path d="M82.5508 37.6804H83.2988C83.5917 37.6804 83.7967 37.7646 83.9138 37.9331C84.0332 38.1015 84.0918 38.3975 84.0918 38.8231C84.0918 39.2488 84.0332 39.5425 83.9138 39.7109C83.7944 39.8794 83.5894 39.9636 83.2988 39.9636H82.5508V37.6827V37.6804ZM83.0329 38.0264V39.6039H83.2379C83.3889 39.6039 83.4925 39.5539 83.5488 39.4537C83.6052 39.3535 83.6345 39.1396 83.6345 38.8163C83.6345 38.4931 83.6052 38.2791 83.5488 38.1789C83.4925 38.0788 83.3889 38.0287 83.2379 38.0287H83.0329V38.0264Z" fill="black"/>
<path d="M86.0023 37.6803V39.1098C86.0023 39.4285 85.9415 39.6584 85.8221 39.795C85.7026 39.9316 85.5044 39.9999 85.2295 39.9999C84.9547 39.9999 84.7699 39.9338 84.646 39.7995C84.5198 39.6652 84.459 39.4581 84.459 39.1758V37.6803H84.9321V39.0529C84.9321 39.3147 84.9547 39.4786 84.9975 39.5491C85.0425 39.6197 85.1214 39.6538 85.2363 39.6538C85.3512 39.6538 85.4255 39.6151 85.4683 39.5355C85.5111 39.4581 85.5337 39.2965 85.5337 39.0506V37.678H86.0023V37.6803Z" fill="black"/>
<path d="M86.347 39.2578H86.8291V39.3193C86.8291 39.4376 86.8494 39.5196 86.8877 39.5697C86.926 39.6197 86.9936 39.6448 87.086 39.6448C87.1581 39.6448 87.2166 39.622 87.2595 39.5765C87.3023 39.531 87.3225 39.4695 87.3225 39.3921C87.3225 39.2828 87.2212 39.1645 87.0206 39.0325C87.0071 39.0233 86.9981 39.0188 86.9914 39.0142C86.8855 38.9459 86.8021 38.889 86.739 38.8435C86.6759 38.8003 86.6286 38.7616 86.5993 38.7342C86.516 38.6569 86.4597 38.5863 86.4281 38.518C86.3966 38.4497 86.3831 38.3678 86.3831 38.2676C86.3831 38.0764 86.4484 37.9239 86.5768 37.8123C86.7052 37.7008 86.881 37.6416 87.0995 37.6416C87.318 37.6416 87.496 37.694 87.6109 37.7987C87.7258 37.9034 87.7821 38.0604 87.7821 38.2676V38.3268H87.3135V38.3154C87.3135 38.2084 87.2933 38.1265 87.255 38.0741C87.2167 38.0195 87.1581 37.9922 87.0815 37.9922C87.0116 37.9922 86.9553 38.0126 86.9148 38.0559C86.8742 38.0991 86.8517 38.1561 86.8517 38.2266C86.8517 38.3495 86.9823 38.4884 87.2459 38.6455C87.3135 38.6864 87.3653 38.7183 87.4036 38.7434C87.5523 38.839 87.656 38.93 87.7146 39.0165C87.7731 39.103 87.8024 39.2077 87.8024 39.3284C87.8024 39.5492 87.7371 39.7176 87.6087 39.8292C87.4802 39.9407 87.2887 39.9976 87.0342 39.9976C86.7953 39.9976 86.6219 39.9453 86.5092 39.8383C86.3988 39.7313 86.3425 39.5651 86.3425 39.3375C86.3425 39.3284 86.3425 39.317 86.3425 39.2988C86.3425 39.2806 86.3425 39.2669 86.3425 39.2578H86.347Z" fill="black"/>
<path d="M88.5009 39.9613V38.0537H87.9849V37.6804H89.5102V38.0537H88.9897V39.9613H88.5031H88.5009Z" fill="black"/>
<path d="M90.4046 37.6804C90.6817 37.6804 90.871 37.7237 90.9701 37.8079C91.0692 37.8921 91.1188 38.0446 91.1188 38.2677C91.1188 38.443 91.094 38.5727 91.0422 38.6615C90.9904 38.748 90.907 38.8072 90.7876 38.8368C90.9228 38.8641 91.0151 38.9119 91.0647 38.9825C91.1143 39.0531 91.1391 39.1828 91.1391 39.3786C91.1391 39.39 91.1391 39.4104 91.1368 39.4355C91.1368 39.4605 91.1368 39.481 91.1368 39.4924C91.1368 39.5971 91.1413 39.6859 91.1503 39.761C91.1593 39.8361 91.1751 39.9044 91.1954 39.9636H90.702C90.6795 39.8885 90.6682 39.7382 90.6659 39.5129C90.6659 39.4355 90.6659 39.3763 90.6637 39.333C90.6614 39.2192 90.6389 39.1396 90.6006 39.094C90.5623 39.0485 90.497 39.0235 90.4046 39.0235H90.2063V39.9636H89.731V37.6827H90.4046V37.6804ZM90.2063 38.6661H90.3235C90.4497 38.6661 90.5398 38.641 90.5893 38.5932C90.6389 38.5454 90.6637 38.4612 90.6637 38.3406C90.6637 38.2199 90.6412 38.1448 90.5961 38.1015C90.551 38.0583 90.4632 38.0378 90.3325 38.0378H90.2063V38.6684V38.6661Z" fill="black"/>
<path d="M91.878 39.9613V39.1031L91.2855 37.6804H91.8104L92.1371 38.6319L92.5021 37.6804H92.9977L92.3579 39.1031V39.9613H91.8758H91.878Z" fill="black"/>
</g>
<defs>
<clipPath id="clip0_565_4015">
<rect width="93" height="40" fill="white"/>
</clipPath>
</defs>
</svg>
