<svg width="60" height="61" viewBox="0 0 60 61" fill="none" xmlns="http://www.w3.org/2000/svg">
<path fill-rule="evenodd" clip-rule="evenodd" d="M0 61H60V0H0V61Z" fill="#CB1517"/>
<path fill-rule="evenodd" clip-rule="evenodd" d="M12.3338 31.0304C12.3338 28.4981 14.3807 26.4451 16.9055 26.4451H20.3743V23.8473H16.8772C12.9282 23.8473 9.71533 27.0696 9.71533 31.0307C9.71533 34.9912 12.9282 38.2139 16.8772 38.2139L23.6104 38.2137C23.9871 38.2137 24.29 37.8423 24.29 37.5346V24.2295C24.29 23.4963 24.7485 22.8778 25.4309 22.6914C26.013 22.5322 26.8292 22.6936 27.3748 23.6235C27.4001 23.6664 29.0544 26.5268 31.5756 30.8858C33.5543 34.3085 35.6012 37.8478 35.6384 37.9108C35.8498 38.2714 36.1404 38.4419 36.4164 38.3666C36.5903 38.3194 36.7939 38.1505 36.7939 37.8309V24.2295C36.7944 23.4952 37.2511 22.8766 37.931 22.6909C38.5093 22.5328 39.3215 22.6949 39.8666 23.6235C39.8911 23.6644 41.3534 26.1938 43.7598 30.3548C45.8879 34.0344 48.0882 37.8399 48.1297 37.9105C48.3417 38.2714 48.6328 38.4419 48.9083 38.3666C49.0821 38.3194 49.2858 38.1505 49.2858 37.8311V20.2102H46.6898V30.7009C46.6898 30.7009 42.3531 23.207 42.1539 22.8676C39.4007 18.1768 34.198 20.1155 34.198 24.1535V30.7009C34.198 30.7009 29.8613 23.207 29.662 22.8676C26.9087 18.1768 21.7066 20.1155 21.7061 24.1535V34.8849C21.7077 35.2752 21.4151 35.6155 20.9891 35.616H16.9055C14.3807 35.616 12.3338 33.5627 12.3338 31.0304Z" fill="white"/>
<path fill-rule="evenodd" clip-rule="evenodd" d="M50.3216 20.21V37.8307C50.3216 38.5641 49.863 39.1827 49.1807 39.3694C49.0552 39.4034 48.919 39.4229 48.7767 39.4229C48.2591 39.4229 47.6651 39.1663 47.2368 38.437C47.2139 38.3978 45.4901 35.4174 42.8639 30.8756C40.9689 27.5995 39.0097 24.212 38.9736 24.1499C38.7622 23.7899 38.4745 23.6189 38.203 23.6931C38.031 23.7402 37.8298 23.909 37.8298 24.2297V37.8307C37.8298 38.5644 37.3711 39.1827 36.6889 39.3694C36.1066 39.528 35.2905 39.3668 34.7448 38.437C34.7229 38.3992 33.1204 35.6291 30.6793 31.4067C28.6343 27.8713 26.5198 24.2151 26.4818 24.1499C26.2699 23.789 25.9787 23.6183 25.7033 23.6936C25.5294 23.7412 25.3262 23.9101 25.3262 24.2293L25.3258 37.5342C25.3258 38.4497 24.5242 39.2525 23.6103 39.2525L16.8769 39.2527C12.3566 39.2527 8.67933 35.5642 8.67933 31.0304C8.67933 26.4964 12.3566 22.8076 16.8769 22.8076H20.3742V20.21H16.8799C10.9223 20.21 6.09229 25.0542 6.09229 31.0304C6.09229 37.0059 10.9223 41.8503 16.8799 41.8503H23.6787C26.2629 41.8519 27.9251 40.3329 27.9222 37.5312V31.3596C27.9222 31.3596 32.2583 38.8535 32.4582 39.193C35.2113 43.8836 40.414 41.945 40.414 37.907V31.3596C40.414 31.3596 44.7507 38.8535 44.9494 39.193C47.7027 43.8836 52.9054 41.945 52.9059 37.907V20.21H50.3216Z" fill="white"/>
</svg>
