<svg width="140" height="31" viewBox="0 0 140 31" fill="none" xmlns="http://www.w3.org/2000/svg">
<g clip-path="url(#clip0_869_1726)">
<path fill-rule="evenodd" clip-rule="evenodd" d="M45.4365 1.25639L44.6579 0.0974121H20.3185V1.25639H45.4365Z" fill="#005BAA"/>
<path fill-rule="evenodd" clip-rule="evenodd" d="M68.8054 1.25639V0.0974121H56.753L55.9317 1.25639H68.8054Z" fill="#005BAA"/>
<path fill-rule="evenodd" clip-rule="evenodd" d="M20.3185 2.57788V3.73686H47.1217L46.3431 2.57788H20.3185Z" fill="#005BAA"/>
<path fill-rule="evenodd" clip-rule="evenodd" d="M68.8054 2.57788H54.9931L54.1825 3.73686H68.8054V2.57788Z" fill="#005BAA"/>
<path d="M68.8054 4.97168H62.7899V6.11983H68.8054V4.97168Z" fill="#005BAA"/>
<path fill-rule="evenodd" clip-rule="evenodd" d="M0 4.97168V6.11983H48.743L47.9643 4.97168H0Z" fill="#005BAA"/>
<path fill-rule="evenodd" clip-rule="evenodd" d="M62.2673 4.97168H53.3079L52.4867 6.11983H61.4566L62.2673 4.97168Z" fill="#005BAA"/>
<path fill-rule="evenodd" clip-rule="evenodd" d="M50.3642 8.51363L49.5856 7.36548H41.4262L42.1301 8.51363H50.3642Z" fill="#005BAA"/>
<path fill-rule="evenodd" clip-rule="evenodd" d="M60.5927 7.36548H51.6121L50.8015 8.51363H59.7928L60.5927 7.36548Z" fill="#005BAA"/>
<path d="M68.8054 7.36548H62.7899V8.51363H68.8054V7.36548Z" fill="#005BAA"/>
<path d="M6.97547 7.36548H0V8.51363H6.97547V7.36548Z" fill="#005BAA"/>
<path d="M68.8054 9.93262H62.7899V11.0808H68.8054V9.93262Z" fill="#005BAA"/>
<path fill-rule="evenodd" clip-rule="evenodd" d="M58.8009 9.93262H43.0047L43.7087 11.0808H58.0009L58.8009 9.93262Z" fill="#005BAA"/>
<path d="M6.97547 9.93262H0V11.0808H6.97547V9.93262Z" fill="#005BAA"/>
<path fill-rule="evenodd" clip-rule="evenodd" d="M57.073 12.4131H44.5193L45.2232 13.5612H56.2731L57.073 12.4131Z" fill="#005BAA"/>
<path d="M68.8054 12.4131H62.7899V13.5612H68.8054V12.4131Z" fill="#005BAA"/>
<path d="M39.069 12.4131H20.2758V13.5612H39.069V12.4131Z" fill="#005BAA"/>
<path fill-rule="evenodd" clip-rule="evenodd" d="M55.3451 14.8933H46.0445L46.3965 15.4674L45.9698 16.0415H55.3345L54.9398 15.4674L55.3451 14.8933Z" fill="#005BAA"/>
<path d="M68.8054 14.8933H62.7899V16.0415H68.8054V14.8933Z" fill="#005BAA"/>
<path d="M39.069 14.8933H20.3291V16.0415H39.069V14.8933Z" fill="#005BAA"/>
<path fill-rule="evenodd" clip-rule="evenodd" d="M56.2304 17.3738H44.9779L44.1246 18.5219H57.009L56.2304 17.3738Z" fill="#005BAA"/>
<path d="M39.069 17.3738H20.3291V18.5219H39.069V17.3738Z" fill="#005BAA"/>
<path d="M68.8054 17.3738H62.7899V18.5219H68.8054V17.3738Z" fill="#005BAA"/>
<path fill-rule="evenodd" clip-rule="evenodd" d="M50.1402 20.7857L50.2362 20.9157H58.6195L57.8409 19.7676H43.1967L42.3434 20.9157H50.0655L50.1402 20.7857Z" fill="#005BAA"/>
<path d="M6.97547 19.7676H0V20.9157H6.97547V19.7676Z" fill="#005BAA"/>
<path fill-rule="evenodd" clip-rule="evenodd" d="M41.2875 22.3347L40.4342 23.4829H48.583L49.2442 22.3347H41.2875Z" fill="#005BAA"/>
<path d="M6.97547 22.3347H0V23.4829H6.97547V22.3347Z" fill="#005BAA"/>
<path fill-rule="evenodd" clip-rule="evenodd" d="M59.5795 22.3347H51.2174L52.0174 23.4829H60.3581L59.5795 22.3347Z" fill="#005BAA"/>
<path fill-rule="evenodd" clip-rule="evenodd" d="M0 24.7178V25.8768H47.1964L47.8577 24.7178H0Z" fill="#005BAA"/>
<path fill-rule="evenodd" clip-rule="evenodd" d="M61.2007 24.7178H52.8813L53.6813 25.8768H61.9793L61.2007 24.7178Z" fill="#005BAA"/>
<path fill-rule="evenodd" clip-rule="evenodd" d="M45.7032 28.4438L46.3751 27.2957H20.3611V28.4438H45.7032Z" fill="#005BAA"/>
<path fill-rule="evenodd" clip-rule="evenodd" d="M20.3291 29.7651V30.9241H44.274L44.9352 29.7651H20.3291Z" fill="#005BAA"/>
<path d="M125.836 0C123.852 0 121.964 0.444095 120.247 1.25646H131.414C129.697 0.454927 127.809 0 125.825 0H125.836Z" fill="#005BAA"/>
<path fill-rule="evenodd" clip-rule="evenodd" d="M133.664 2.57788H118.018C117.538 2.93532 117.068 3.31443 116.631 3.72603H135.062C134.624 3.31443 134.155 2.92449 133.675 2.57788H133.664Z" fill="#005BAA"/>
<path fill-rule="evenodd" clip-rule="evenodd" d="M130.646 8.51363H138.485C138.304 8.12369 138.112 7.73375 137.899 7.36548H129.227C129.739 7.67959 130.219 8.06953 130.657 8.51363H130.646Z" fill="#005BAA"/>
<path fill-rule="evenodd" clip-rule="evenodd" d="M122.455 7.36548H113.783C113.57 7.73375 113.378 8.12369 113.197 8.51363H121.036C121.473 8.06953 121.953 7.67959 122.465 7.36548H122.455Z" fill="#005BAA"/>
<path d="M139.413 11.0808C139.307 10.6908 139.189 10.3117 139.051 9.93262H131.745C131.979 10.3009 132.182 10.68 132.374 11.0808H139.413Z" fill="#005BAA"/>
<path d="M112.621 9.93262C112.493 10.3117 112.365 10.6908 112.258 11.0808H119.298C119.479 10.68 119.692 10.2901 119.927 9.93262H112.621Z" fill="#005BAA"/>
<path d="M111.959 12.4131C111.885 12.7922 111.831 13.1713 111.789 13.5612H118.54C118.615 13.1713 118.7 12.7814 118.818 12.4131H111.959Z" fill="#005BAA"/>
<path d="M139.893 13.5612C139.851 13.1713 139.797 12.7922 139.723 12.4131H132.865C132.971 12.7814 133.067 13.1713 133.142 13.5612H139.893Z" fill="#005BAA"/>
<path fill-rule="evenodd" clip-rule="evenodd" d="M133.281 16.0415H139.989C139.989 15.8573 140 15.684 140 15.4999C140 15.2941 140 15.0991 139.989 14.8933H133.281C133.291 15.0991 133.302 15.2941 133.302 15.4999C133.302 15.684 133.291 15.8573 133.281 16.0415Z" fill="#005BAA"/>
<path fill-rule="evenodd" clip-rule="evenodd" d="M118.402 14.8933H111.693C111.693 15.0991 111.682 15.2941 111.682 15.4999C111.682 15.684 111.682 15.8573 111.693 16.0415H118.402C118.402 15.8573 118.38 15.684 118.38 15.4999C118.38 15.2941 118.391 15.0991 118.402 14.8933Z" fill="#005BAA"/>
<path d="M139.733 18.5219C139.797 18.1428 139.851 17.7637 139.893 17.3738H133.142C133.078 17.7637 132.982 18.1537 132.875 18.5219H139.723H139.733Z" fill="#005BAA"/>
<path d="M111.778 17.3738C111.821 17.7637 111.874 18.1428 111.938 18.5219H118.786C118.679 18.1428 118.583 17.7637 118.519 17.3738H111.767H111.778Z" fill="#005BAA"/>
<path d="M112.226 19.7676C112.333 20.1575 112.439 20.5475 112.567 20.9157H119.831C119.607 20.5475 119.404 20.1683 119.234 19.7676H112.215H112.226Z" fill="#005BAA"/>
<path d="M139.115 20.9157C139.243 20.5366 139.36 20.1575 139.456 19.7676H132.438C132.267 20.1683 132.065 20.5583 131.841 20.9157H139.115Z" fill="#005BAA"/>
<path fill-rule="evenodd" clip-rule="evenodd" d="M129.462 23.4829H137.984C138.187 23.1146 138.379 22.7247 138.56 22.3347H130.795C130.39 22.768 129.953 23.1579 129.473 23.4829H129.462Z" fill="#005BAA"/>
<path fill-rule="evenodd" clip-rule="evenodd" d="M120.897 22.3347H113.133C113.314 22.7247 113.495 23.1146 113.709 23.4829H122.231C121.751 23.1579 121.313 22.768 120.908 22.3347H120.897Z" fill="#005BAA"/>
<path fill-rule="evenodd" clip-rule="evenodd" d="M118.05 28.4438H133.632C134.123 28.0864 134.582 27.7073 135.03 27.2957H116.652C117.1 27.7073 117.559 28.0972 118.05 28.4438Z" fill="#005BAA"/>
<path d="M125.836 31.0001C127.798 31.0001 129.675 30.5668 131.371 29.7761H120.3C121.996 30.5668 123.873 31.0001 125.836 31.0001Z" fill="#005BAA"/>
<path fill-rule="evenodd" clip-rule="evenodd" d="M69.904 16.0415H101.294C101.294 15.8682 101.272 15.684 101.272 15.5107C101.272 15.3049 101.283 15.0991 101.294 14.8933H70.16L69.8933 16.0415H69.904Z" fill="#005BAA"/>
<path fill-rule="evenodd" clip-rule="evenodd" d="M88.196 18.5219H101.731C101.614 18.1537 101.518 17.7637 101.443 17.3738H87.9293L88.196 18.5219Z" fill="#005BAA"/>
<path fill-rule="evenodd" clip-rule="evenodd" d="M88.7506 20.9157H102.851C102.616 20.5583 102.392 20.1683 102.211 19.7676H88.4839L88.7506 20.9157Z" fill="#005BAA"/>
<path d="M89.3372 23.4829H105.656C105.069 23.1904 104.536 22.7896 104.045 22.3347H89.0706L89.3372 23.4829Z" fill="#005BAA"/>
<path fill-rule="evenodd" clip-rule="evenodd" d="M115.021 0.140738V0.0974121H104.109C103.245 0.389865 102.424 0.779802 101.646 1.24556H115.021V0.140738Z" fill="#005BAA"/>
<path fill-rule="evenodd" clip-rule="evenodd" d="M115.021 2.71885V2.58887H99.8111C99.3951 2.94631 99.0111 3.33625 98.6272 3.73702H115.01V2.71885H115.021Z" fill="#005BAA"/>
<path fill-rule="evenodd" clip-rule="evenodd" d="M136.235 4.97168H97.6139C97.3366 5.33995 97.0806 5.72989 96.8353 6.11983H137.12C136.843 5.71906 136.544 5.33995 136.235 4.97168Z" fill="#005BAA"/>
<path d="M104.237 8.51363C104.792 8.02621 105.4 7.63627 106.051 7.36548H96.1313C95.9394 7.74458 95.758 8.12369 95.5981 8.51363H104.227H104.237Z" fill="#005BAA"/>
<path d="M102.296 11.0808C102.499 10.68 102.723 10.2901 102.968 9.93262H95.0968C94.9794 10.3117 94.8728 10.6908 94.7768 11.0808H102.296Z" fill="#005BAA"/>
<path fill-rule="evenodd" clip-rule="evenodd" d="M116.332 27.2957H98.5845C98.9578 27.7073 99.3524 28.0864 99.7684 28.4438H116.332V27.2957Z" fill="#005BAA"/>
<path fill-rule="evenodd" clip-rule="evenodd" d="M116.332 30.9243V29.7761H101.571C102.339 30.2419 103.139 30.6318 103.981 30.9243H116.322H116.332Z" fill="#005BAA"/>
<path fill-rule="evenodd" clip-rule="evenodd" d="M90.2118 27.2957L90.4678 28.4438H97.8912L97.6352 27.2957H90.2118Z" fill="#005BAA"/>
<path fill-rule="evenodd" clip-rule="evenodd" d="M90.7771 29.7651L91.0437 30.9241H98.4458L98.1898 29.7651H90.7771Z" fill="#005BAA"/>
<path d="M89.6145 24.7178L89.8811 25.8659H136.363C136.662 25.4976 136.95 25.1185 137.227 24.7178H89.6252H89.6145Z" fill="#005BAA"/>
<path fill-rule="evenodd" clip-rule="evenodd" d="M87.876 17.3738H76.9755L77.2421 18.5219H87.6413L87.876 17.3738Z" fill="#005BAA"/>
<path fill-rule="evenodd" clip-rule="evenodd" d="M76.8902 17.3738H69.5947L69.3281 18.5219H76.6982L76.8902 17.3738Z" fill="#005BAA"/>
<path fill-rule="evenodd" clip-rule="evenodd" d="M87.1507 20.9157L87.3854 19.7676H77.5301L77.7861 20.9157H87.1507Z" fill="#005BAA"/>
<path fill-rule="evenodd" clip-rule="evenodd" d="M68.8054 20.7857V19.7676H62.7899V20.9157H76.2395L76.4742 19.7676H69.0401L68.8054 20.7857Z" fill="#005BAA"/>
<path fill-rule="evenodd" clip-rule="evenodd" d="M62.7899 23.4829H75.7062L75.9409 22.3347H62.7899V23.4829Z" fill="#005BAA"/>
<path fill-rule="evenodd" clip-rule="evenodd" d="M86.6281 23.4829L86.8627 22.3347H78.1167L78.3727 23.4829H86.6281Z" fill="#005BAA"/>
<path fill-rule="evenodd" clip-rule="evenodd" d="M86.1374 25.8765L86.3721 24.7175H78.6607L78.9273 25.8765H86.1374Z" fill="#005BAA"/>
<path fill-rule="evenodd" clip-rule="evenodd" d="M62.7899 25.8765H75.2049L75.4396 24.7175H62.7899V25.8765Z" fill="#005BAA"/>
<path fill-rule="evenodd" clip-rule="evenodd" d="M85.6148 28.4436L85.8495 27.2954H79.2473L79.5139 28.4436H85.6148Z" fill="#005BAA"/>
<path fill-rule="evenodd" clip-rule="evenodd" d="M55.4731 28.4436H74.6717L74.9063 27.2954H54.6732L55.4731 28.4436Z" fill="#005BAA"/>
<path fill-rule="evenodd" clip-rule="evenodd" d="M57.1903 30.9241H74.149L74.3943 29.7651H56.3904L57.1903 30.9241Z" fill="#005BAA"/>
<path d="M85.1029 30.9241L85.3375 29.7651H79.8126L80.0792 30.9241H85.1029Z" fill="#005BAA"/>
<path fill-rule="evenodd" clip-rule="evenodd" d="M73.5944 0.0974121L73.3277 1.25639H80.1006L79.8659 0.0974121H73.5944Z" fill="#005BAA"/>
<path fill-rule="evenodd" clip-rule="evenodd" d="M73.0184 2.57788L72.7518 3.73686H80.6019L80.3672 2.57788H73.0184Z" fill="#005BAA"/>
<path fill-rule="evenodd" clip-rule="evenodd" d="M72.4638 4.97168L72.1972 6.11983H81.0925L80.8578 4.97168H72.4638Z" fill="#005BAA"/>
<path fill-rule="evenodd" clip-rule="evenodd" d="M71.9092 7.36548L71.6425 8.51363H81.5831L81.3485 7.36548H71.9092Z" fill="#005BAA"/>
<path fill-rule="evenodd" clip-rule="evenodd" d="M71.3226 9.93237L71.0559 11.0805H82.1057L81.8711 9.93237H71.3226Z" fill="#005BAA"/>
<path fill-rule="evenodd" clip-rule="evenodd" d="M82.671 12.4128L82.5217 13.1494L82.3724 12.4128H70.7466L70.48 13.561H101.464C101.539 13.1711 101.635 12.7811 101.752 12.4128H82.671Z" fill="#005BAA"/>
<path fill-rule="evenodd" clip-rule="evenodd" d="M91.833 1.25639L91.577 0.0974121H85.1882L84.9535 1.25639H91.833Z" fill="#005BAA"/>
<path fill-rule="evenodd" clip-rule="evenodd" d="M92.3876 3.73686L92.1317 2.57788H84.6869L84.4522 3.73686H92.3876Z" fill="#005BAA"/>
<path fill-rule="evenodd" clip-rule="evenodd" d="M92.9209 6.11983L92.6649 4.97168H84.1963L83.9616 6.11983H92.9209Z" fill="#005BAA"/>
<path fill-rule="evenodd" clip-rule="evenodd" d="M93.4542 8.51363L93.1982 7.36548H83.7056L83.471 8.51363H93.4542Z" fill="#005BAA"/>
<path fill-rule="evenodd" clip-rule="evenodd" d="M94.0195 11.0805L93.7635 9.93237H83.183L82.9483 11.0805H94.0195Z" fill="#005BAA"/>
<path fill-rule="evenodd" clip-rule="evenodd" d="M27.5606 7.36548H14.7296C15.0069 7.71209 15.2202 8.10203 15.3375 8.51363H27.5606V7.36548Z" fill="#005BAA"/>
<path fill-rule="evenodd" clip-rule="evenodd" d="M27.5606 11.0808V9.93262H15.3482C15.2415 10.3442 15.0495 10.7342 14.7829 11.0808H27.5606Z" fill="#005BAA"/>
<path fill-rule="evenodd" clip-rule="evenodd" d="M27.5606 19.7676H14.7615C15.0388 20.1142 15.2308 20.5041 15.3482 20.9157H27.5606V19.7676Z" fill="#005BAA"/>
<path fill-rule="evenodd" clip-rule="evenodd" d="M27.5606 23.4829V22.3347H15.3375C15.2308 22.7463 15.0282 23.1363 14.7615 23.4829H27.5606Z" fill="#005BAA"/>
<path fill-rule="evenodd" clip-rule="evenodd" d="M0 12.4131V13.5612H19.3159C19.6038 13.193 19.8705 12.8139 20.0838 12.4131H0Z" fill="#005BAA"/>
<path d="M17.204 15.4676C17.4813 15.2835 17.7373 15.0885 17.9933 14.8936H0V16.0417H17.9613C17.716 15.8467 17.4707 15.6626 17.204 15.4893V15.4676Z" fill="#005BAA"/>
<path fill-rule="evenodd" clip-rule="evenodd" d="M0 17.374V18.5222H20.0731C19.8492 18.1214 19.5932 17.7315 19.2945 17.374H0Z" fill="#005BAA"/>
<path fill-rule="evenodd" clip-rule="evenodd" d="M16.6814 0.0974121H0V1.25639H18.2066C17.7373 0.83396 17.2254 0.444023 16.6707 0.108244L16.6814 0.0974121Z" fill="#005BAA"/>
<path fill-rule="evenodd" clip-rule="evenodd" d="M19.4439 2.57788H0V3.72603H20.2011C19.9771 3.32526 19.7212 2.94615 19.4439 2.57788Z" fill="#005BAA"/>
<path fill-rule="evenodd" clip-rule="evenodd" d="M0 27.2954V28.4436H19.5078C19.9451 27.8803 20.2118 27.4254 20.2865 27.2954H0Z" fill="#005BAA"/>
<path fill-rule="evenodd" clip-rule="evenodd" d="M0 29.7651V30.9133H16.8094C17.3747 30.5775 17.876 30.1767 18.3133 29.7651H0Z" fill="#005BAA"/>
</g>
<defs>
<clipPath id="clip0_869_1726">
<rect width="140" height="31" fill="white"/>
</clipPath>
</defs>
</svg>
