<svg width="124" height="35" viewBox="0 0 124 35" fill="none" xmlns="http://www.w3.org/2000/svg">
<path d="M50.0709 34.2102L66.7435 17.5L50.0709 0.789795H16.7375L0.0649414 17.5L16.7375 34.2102H50.0709Z" fill="white"/>
<path d="M66.7434 17.5L50.0708 0.789795V34.2102L66.7434 17.5Z" fill="#EE3524"/>
<path d="M33.3982 17.5L50.0707 0.789795H16.7373L33.3982 17.5Z" fill="#EE3524"/>
<path d="M0.0649414 17.5L16.7375 34.2102V0.789795L0.0649414 17.5Z" fill="#EE3524"/>
<path d="M33.3982 17.5L16.7373 34.2102H50.0707L33.3982 17.5Z" fill="#EE3524"/>
<path d="M81.3716 18.5187H75.3312V24.4908H72.2935V10.4973H75.3312V16.2352H81.3716V10.4973H84.3977V24.4908H81.3716V18.5187Z" fill="#231F20"/>
<path d="M91.6645 24.7482C88.6501 24.7482 86.1849 23.5538 86.1265 20.2047H89.1642C89.1993 21.6919 90.0755 22.5819 91.7346 22.5819C92.9731 22.5819 94.3634 21.9612 94.3634 20.5678C94.3634 19.4787 93.4171 19.1391 91.8514 18.6941L90.8466 18.4014C88.6501 17.7691 86.4653 16.9142 86.4653 14.3966C86.4653 11.2817 89.3628 10.2395 92.0033 10.2395C94.6438 10.2395 97.0624 11.188 97.0857 14.2795H94.048C93.9311 13.0031 93.1951 12.2653 91.7697 12.2653C90.648 12.2653 89.5264 12.8625 89.5264 14.1038C89.5264 15.1343 90.4494 15.4388 92.4239 16.0594L93.5806 16.4224C95.9758 17.1718 97.483 18.0033 97.483 20.3336C97.483 23.5304 94.4102 24.7482 91.6762 24.7482" fill="#231F20"/>
<path d="M99.1772 10.4973H104.026C105.557 10.4973 106.164 10.5324 106.772 10.673C108.466 11.0594 109.751 12.1601 109.751 14.0455C109.751 15.9308 108.606 16.7739 106.97 17.1955C108.863 17.5468 110.253 18.507 110.253 20.5797C110.253 23.7531 107.122 24.4908 104.669 24.4908H99.1889V10.4973H99.1772ZM104.049 16.3172C105.381 16.3172 106.737 16.0479 106.737 14.4202C106.737 12.9681 105.463 12.5817 104.248 12.5817H102.122V16.3172H104.049ZM104.341 22.3947C105.755 22.3947 107.145 22.0668 107.145 20.3572C107.145 18.6475 105.942 18.3079 104.517 18.3079H102.122V22.3947H104.341Z" fill="#231F20"/>
<path d="M118.151 24.7485C113.653 24.7485 111.62 21.8678 111.62 17.6053C111.62 13.3429 113.863 10.228 118.303 10.228C121.084 10.228 123.783 11.4693 123.865 14.6427H120.733C120.581 13.2492 119.647 12.5115 118.303 12.5115C115.581 12.5115 114.751 15.4507 114.751 17.699C114.751 19.9474 115.581 22.5119 118.21 22.5119C119.577 22.5119 120.581 21.7741 120.792 20.3689H123.935C123.584 23.5423 121.037 24.7368 118.14 24.7368" fill="#231F20"/>
</svg>
